<?xml version="1.0" encoding="UTF-8"?>
<svg version="1.1" xmlns="http://www.w3.org/2000/svg" width="225" height="225">
<path d="M0 0 C0.33 0.66 0.66 1.32 1 2 C1.89847656 2.28488281 2.79695312 2.56976563 3.72265625 2.86328125 C14.79574007 6.70388601 25.38405515 18.89952776 31 29 C31 29.66 31 30.32 31 31 C31.66 31.33 32.32 31.66 33 32 C38.48557781 45.75331471 38.18612914 61.37019632 32.390625 74.9453125 C31.93171875 75.95335938 31.4728125 76.96140625 31 78 C30.34 78 29.68 78 29 78 C28.67902344 79.28777344 28.67902344 79.28777344 28.3515625 80.6015625 C26.70428177 84.74356897 24.44448695 87.21981672 21.375 90.375 C20.859375 90.92027344 20.34375 91.46554688 19.8125 92.02734375 C18.55023605 93.35973348 17.27628255 94.68103241 16 96 C17.39412109 95.96519531 17.39412109 95.96519531 18.81640625 95.9296875 C20.67072266 95.90261719 20.67072266 95.90261719 22.5625 95.875 C23.78066406 95.85179687 24.99882812 95.82859375 26.25390625 95.8046875 C33.94279801 96.2055682 41.17272656 99.3719843 48.375 101.9375 C49.38433594 102.28490234 50.39367187 102.63230469 51.43359375 102.99023438 C52.39136719 103.33248047 53.34914062 103.67472656 54.3359375 104.02734375 C55.20782715 104.33406006 56.0797168 104.64077637 56.97802734 104.95678711 C59 106 59 106 60 109 C59.34 109 58.68 109 58 109 C58 109.66 58 110.32 58 111 C55.99182253 112.81991083 53.87813661 114.47105205 51.75 116.1484375 C49.54207092 118.05988838 49.54207092 118.05988838 50 122 C50.66 122.33 51.32 122.66 52 123 C53.0703125 124.9609375 53.0703125 124.9609375 54.125 127.375 C54.47820312 128.16648438 54.83140625 128.95796875 55.1953125 129.7734375 C56 132 56 132 56 135 C54.43662827 134.54464901 52.87434151 134.08557224 51.3125 133.625 C50.44238281 133.36976563 49.57226562 133.11453125 48.67578125 132.8515625 C46.07486881 132.02382686 43.53422977 131.01369191 41 130 C41 135.61 41 141.22 41 147 C35.41535359 145.89895123 29.84240182 144.75877892 24.27734375 143.5625 C-23.33185152 133.38218102 -70.85719004 133.1005499 -117.39453125 148.86328125 C-121 150 -121 150 -124 150 C-124.33 144.72 -124.66 139.44 -125 134 C-129.95 135.65 -134.9 137.3 -140 139 C-140.33 138.01 -140.66 137.02 -141 136 C-140.34 136 -139.68 136 -139 136 C-138.01 132.37 -137.02 128.74 -136 125 C-135.34 125 -134.68 125 -134 125 C-134.41556417 120.15175132 -136.37448245 118.11963138 -140 115 C-142.16620544 113.70480005 -142.16620544 113.70480005 -144 113 C-142.88809524 109.66428571 -142.53679327 109.41582921 -139.625 107.8125 C-139.01914063 107.46832031 -138.41328125 107.12414062 -137.7890625 106.76953125 C-136 106 -136 106 -133 106 C-132.505 105.01 -132.505 105.01 -132 104 C-122.29786181 99.71488896 -112.43015868 99.24982416 -102 99 C-102.99 98.38125 -103.98 97.7625 -105 97.125 C-106.485 96.073125 -106.485 96.073125 -108 95 C-108 94.34 -108 93.68 -108 93 C-108.66 93 -109.32 93 -110 93 C-118.56672918 83.95734142 -126.28755794 70.58647648 -127 58 C-127.05027344 57.35160156 -127.10054687 56.70320313 -127.15234375 56.03515625 C-127.9447356 38.50744855 -119.35537325 24.44219115 -108 12 C-105.44550126 9.24075136 -103.29978006 7.42461531 -99.875 5.875 C-97.3636737 4.72831894 -95.98434628 3.98434628 -94 2 C-92.21173376 1.07648222 -90.39500384 0.20729258 -88.5625 -0.625 C-87.11037109 -1.29402344 -87.11037109 -1.29402344 -85.62890625 -1.9765625 C-83 -3 -83 -3 -80 -3 C-79.67 -3.66 -79.34 -4.32 -79 -5 C-75.5625 -6.1875 -75.5625 -6.1875 -72 -7 C-71.01 -6.505 -71.01 -6.505 -70 -6 C-69.67 -6.66 -69.34 -7.32 -69 -8 C-66.30967164 -8.49526499 -63.71561892 -8.85444224 -61 -9.125 C-60.18982422 -9.2070166 -59.37964844 -9.2890332 -58.54492188 -9.37353516 C-37.87599371 -11.31275278 -19.01183758 -8.76698702 0 0 Z M-66 -4 C-65.21625 -3.814375 -64.4325 -3.62875 -63.625 -3.4375 C-61 -2 -61 -2 -59.6875 1.625 C-59.3471875 3.295625 -59.3471875 3.295625 -59 5 C-58.67 5 -58.34 5 -58 5 C-57.34 2.03 -56.68 -0.94 -56 -4 C-54.68 -3.67 -53.36 -3.34 -52 -3 C-50.75 0.0625 -50.75 0.0625 -50 3 C-49.67 3 -49.34 3 -49 3 C-49.020625 2.05125 -49.04125 1.1025 -49.0625 0.125 C-49 -3 -49 -3 -48 -5 C-47.4225 -4.814375 -46.845 -4.62875 -46.25 -4.4375 C-43.79307475 -3.95976454 -42.35602466 -4.24270636 -40 -5 C-40 -2.36 -40 0.28 -40 3 C-39.731875 2.401875 -39.46375 1.80375 -39.1875 1.1875 C-38.01506533 -0.97224808 -36.80630718 -2.35790256 -35 -4 C-32 -2 -32 -2 -31 1 C-30.38125 0.34 -29.7625 -0.32 -29.125 -1 C-27 -3 -27 -3 -25 -3 C-25 -3.66 -25 -4.32 -25 -5 C-36.8209914 -7.85950548 -54.99256834 -9.97754567 -66 -4 Z M-24 -5 C-24 -4.01 -24 -3.02 -24 -2 C-21.78508316 -0.13749195 -21.78508316 -0.13749195 -19 1 C-18.3915625 0.81050781 -17.783125 0.62101562 -17.15625 0.42578125 C-14.05336748 -0.18692562 -12.49039691 0.95912798 -9.75 2.4375 C-8.85796875 2.91058594 -7.9659375 3.38367187 -7.046875 3.87109375 C-6.37140625 4.24363281 -5.6959375 4.61617187 -5 5 C-5 3.68 -5 2.36 -5 1 C-5.825 0.731875 -6.65 0.46375 -7.5 0.1875 C-10.05301578 -0.67870178 -12.55098031 -1.59029883 -15.0625 -2.5625 C-18.01858905 -3.68592732 -20.86369084 -4.50995169 -24 -5 Z M-76 -2 C-78.98905721 -0.96668342 -81.99386191 0.01760193 -85 1 C-84.67 1.66 -84.34 2.32 -84 3 C-83.38125 2.814375 -82.7625 2.62875 -82.125 2.4375 C-80 2 -80 2 -78 3 C-78 2.34 -78 1.68 -78 1 C-77.01 1 -76.02 1 -75 1 C-72.84694043 4.85756507 -71.60746746 7.55129785 -72 12 C-70.02 11.34 -68.04 10.68 -66 10 C-66.99 6.04 -67.98 2.08 -69 -2 C-68.01 -2 -67.02 -2 -66 -2 C-66 -2.66 -66 -3.32 -66 -4 C-69.93614966 -4.22492284 -72.40480724 -3.5524696 -76 -2 Z M-21 1 C-20 3 -20 3 -20 3 Z M-88 2 C-90.62597583 3.19212694 -90.62597583 3.19212694 -93 5 C-93.99 5.66 -94.98 6.32 -96 7 C-96 7.99 -96 8.98 -96 10 C-95.34 10 -94.68 10 -94 10 C-94 10.66 -94 11.32 -94 12 C-92.68 12.33 -91.36 12.66 -90 13 C-90.49756092 10.24358584 -90.49756092 10.24358584 -92 8 C-89.36 6.68 -86.72 5.36 -84 4 C-85.32 3.34 -86.64 2.68 -88 2 Z M-31 2 C-30 4 -30 4 -30 4 Z M-22 3 C-22 3.99 -22 4.98 -22 6 C-21.34 5.67 -20.68 5.34 -20 5 C-20.66 4.34 -21.32 3.68 -22 3 Z M-3 3 C-3.33 3.66 -3.66 4.32 -4 5 C-3.01 4.67 -2.02 4.34 -1 4 C-1.66 3.67 -2.32 3.34 -3 3 Z M-83 4 C-83 7 -83 7 -83 7 Z M-14 5 C-13.34 5.66 -12.68 6.32 -12 7 C-12 6.34 -12 5.68 -12 5 C-12.66 5 -13.32 5 -14 5 Z M-7 5 C-7.33 5.66 -7.66 6.32 -8 7 C-7.34 7 -6.68 7 -6 7 C-6.33 6.34 -6.66 5.68 -7 5 Z M-54 6 C-54.33 6.66 -54.66 7.32 -55 8 C-54.34 8 -53.68 8 -53 8 C-53.33 7.34 -53.66 6.68 -54 6 Z M-36 6 C-36.33 6.66 -36.66 7.32 -37 8 C-36.01 7.67 -35.02 7.34 -34 7 C-34.66 6.67 -35.32 6.34 -36 6 Z M-27 6 C-27 7.32 -27 8.64 -27 10 C-26.01 9.67 -25.02 9.34 -24 9 C-24.66 9 -25.32 9 -26 9 C-26.33 8.01 -26.66 7.02 -27 6 Z M2 5 C1.34 5.66 0.68 6.32 0 7 C0.66 8.65 1.32 10.3 2 12 C2.78375 11.938125 3.5675 11.87625 4.375 11.8125 C5.674375 11.9053125 5.674375 11.9053125 7 12 C7.99 13.485 7.99 13.485 9 15 C8.34 16.32 7.68 17.64 7 19 C7.66 19 8.32 19 9 19 C9 18.34 9 17.68 9 17 C10.98 17 12.96 17 15 17 C15.33 19.31 15.66 21.62 16 24 C15.01 23.67 14.02 23.34 13 23 C12.67 24.32 12.34 25.64 12 27 C10.35 27.33 8.7 27.66 7 28 C7.48210937 28.78761719 7.96421875 29.57523438 8.4609375 30.38671875 C12.51582198 37.37932565 14.83347746 43.02965275 15.61328125 51.22265625 C15.98849533 53.91737552 16.63275557 55.67289418 18 58 C18.99 58 19.98 58 21 58 C22.33849671 58.99307821 23.67151309 59.99357052 25 61 C27.14733927 61.70514846 27.14733927 61.70514846 29 62 C28.67 62.99 28.34 63.98 28 65 C25.525 65.495 25.525 65.495 23 66 C23.66 66.37125 24.32 66.7425 25 67.125 C27 69 27 69 27.25 72.1875 C27.1675 73.115625 27.085 74.04375 27 75 C24.525 75.495 24.525 75.495 22 76 C22.0825 76.763125 22.165 77.52625 22.25 78.3125 C22.1675 79.199375 22.085 80.08625 22 81 C20.67732273 82.01405257 19.34275169 83.01268258 18 84 C16.71991738 87.08777172 16.71991738 87.08777172 16 90 C14.35 89.67 12.7 89.34 11 89 C10.67 90.98 10.34 92.96 10 95 C7.03 95.99 7.03 95.99 4 97 C4 97.66 4 98.32 4 99 C-0.5 100.5 -0.5 100.5 -5 102 C-5.99 102.99 -5.99 102.99 -7 104 C-8.485 104.495 -8.485 104.495 -10 105 C-9.67 105.66 -9.34 106.32 -9 107 C-2.92534872 105.5123303 2.47528757 103.52471243 7 99 C8.31747324 98.30251417 9.64914193 97.63040043 11 97 C11 96.34 11 95.68 11 95 C11.763125 94.7525 12.52625 94.505 13.3125 94.25 C16.26080945 92.87869328 17.35834532 91.7648921 19 89 C19 88.34 19 87.68 19 87 C20.485 86.505 20.485 86.505 22 86 C22 85.34 22 84.68 22 84 C22.66 84 23.32 84 24 84 C30.18281998 74.72577003 33.57885799 65.11814894 34 54 C34.103125 52.72125 34.20625 51.4425 34.3125 50.125 C34.17022541 40.26740352 29.48034257 29.36402565 23 22 C22.34 22 21.68 22 21 22 C21 21.01 21 20.02 21 19 C20.34 19 19.68 19 19 19 C18.67 18.01 18.34 17.02 18 16 C17.34 16 16.68 16 16 16 C16 15.34 16 14.68 16 14 C14.28480923 12.5760131 12.5012088 11.2336784 10.6875 9.9375 C9.20830078 8.86822266 9.20830078 8.86822266 7.69921875 7.77734375 C5.07080941 5.88048365 5.07080941 5.88048365 2 5 Z M-82 7 C-81 9 -81 9 -81 9 Z M-9 8 C-8 10 -8 10 -8 10 Z M-104.625 13.3125 C-105.62789062 14.11300781 -106.63078125 14.91351563 -107.6640625 15.73828125 C-108.43492188 16.48464844 -109.20578125 17.23101562 -110 18 C-110 18.99 -110 19.98 -110 21 C-110.89525391 21.35191406 -110.89525391 21.35191406 -111.80859375 21.7109375 C-118.42319204 25.60187767 -121.56337098 35.94659988 -123.5637207 42.98291016 C-124.30481897 46.40929734 -124.18450197 49.88529611 -124.1875 53.375 C-124.19974609 54.1175 -124.21199219 54.86 -124.22460938 55.625 C-124.23662599 60.1592692 -123.68340179 63.72428747 -122 68 C-121.65023242 69.32911682 -121.30903983 70.66082739 -121 72 C-120.34 72 -119.68 72 -119 72 C-118.90138672 73.27423828 -118.90138672 73.27423828 -118.80078125 74.57421875 C-117.7956666 78.87414824 -115.9005933 81.40851885 -113.1875 84.8125 C-112.74857422 85.39708984 -112.30964844 85.98167969 -111.85742188 86.58398438 C-109.39062456 89.74720292 -107.89799917 91.21363574 -104 92 C-103.29962473 93.31593947 -102.63569728 94.65162647 -102 96 C-94.34125456 102.45381351 -84.76518232 107.0107962 -75 109 C-75 109.66 -75 110.32 -75 111 C-75.86625 110.979375 -76.7325 110.95875 -77.625 110.9375 C-83.52464846 111.04675275 -89.11259377 112.43866972 -94.8125 113.875 C-95.87416382 114.14171509 -95.87416382 114.14171509 -96.95727539 114.41381836 C-102.06080671 115.71618757 -107.03799419 117.23192897 -112 119 C-113.68645931 119.56561251 -115.37395738 120.12813758 -117.0625 120.6875 C-117.81660156 120.93886719 -118.57070312 121.19023437 -119.34765625 121.44921875 C-119.89292969 121.63097656 -120.43820313 121.81273437 -121 122 C-121.11459026 129.41017023 -120.91160286 136.64206267 -120 144 C-115.29991455 143.48000068 -115.29991455 143.48000068 -110.8125 142.0859375 C-107.01885554 140.62116922 -103.15945159 139.83965285 -99.1875 139 C-97.63909328 138.66773502 -96.09091397 138.33440842 -94.54296875 138 C-93.77138428 137.83556396 -92.9997998 137.67112793 -92.20483398 137.50170898 C-90.26063617 137.05930764 -88.33834226 136.52290831 -86.421875 135.97265625 C-79.80326668 134.2894154 -72.84970238 134.02248374 -66.0625 133.4375 C-63.91502196 133.25031354 -61.76778077 133.06126081 -59.62095642 132.86671448 C-57.69182033 132.69211616 -55.76205894 132.52446818 -53.83227539 132.35717773 C-51.10258055 132.30693982 -51.10258055 132.30693982 -50 131 C-47.54939255 130.98305725 -45.13079017 131.02877818 -42.68359375 131.12109375 C-41.58701195 131.15651024 -41.58701195 131.15651024 -40.46827698 131.19264221 C-38.12449544 131.26945084 -35.78103018 131.35340031 -33.4375 131.4375 C-31.85222922 131.49070352 -30.26694282 131.54344402 -28.68164062 131.59570312 C-24.78755868 131.72508904 -20.8937459 131.86088131 -17 132 C-17.66 131.67 -18.32 131.34 -19 131 C-18.34 128.69 -17.68 126.38 -17 124 C-18.98 124 -20.96 124 -23 124 C-23 123.34 -23 122.68 -23 122 C-23.66 121.67 -24.32 121.34 -25 121 C-21.69453961 119.01829033 -19.20178541 118.75576868 -15.375 118.8125 C-14.41335937 118.81894531 -13.45171875 118.82539063 -12.4609375 118.83203125 C-10 119 -10 119 -8 120 C-7.071875 119.979375 -6.14375 119.95875 -5.1875 119.9375 C0.8764431 119.8347213 8.54278356 120.27139178 14 123 C15.99960012 123.039992 18.00047242 123.04346799 20 123 C19.690625 123.721875 19.38125 124.44375 19.0625 125.1875 C17.53327591 129.23544611 16.60965886 131.82897658 18 136 C17.01 136.495 17.01 136.495 16 137 C18.76989964 137.67076489 21.54079742 138.33676317 24.3125 139 C25.09818359 139.19078125 25.88386719 139.3815625 26.69335938 139.578125 C27.45068359 139.75859375 28.20800781 139.9390625 28.98828125 140.125 C30.03302612 140.37636719 30.03302612 140.37636719 31.09887695 140.6328125 C33.16821738 141.09481884 33.16821738 141.09481884 36 141 C36 133.41 36 125.82 36 118 C18.47735197 113.58732548 18.47735197 113.58732548 0.75 110.125 C0.03150879 110.00535889 -0.68698242 109.88571777 -1.42724609 109.76245117 C-4.98150356 109.2060544 -8.40246023 108.87450443 -12 109 C-12.66 107.02 -13.32 105.04 -14 103 C-14.20625 103.639375 -14.4125 104.27875 -14.625 104.9375 C-16 107 -16 107 -19 107.875 C-19.99 107.91625 -20.98 107.9575 -22 108 C-22.66 107.34 -23.32 106.68 -24 106 C-24 106.99 -24 107.98 -24 109 C-27.465 109.99 -27.465 109.99 -31 111 C-31.99 107.04 -31.99 107.04 -33 103 C-33.66 103 -34.32 103 -35 103 C-34.505 106.96 -34.505 106.96 -34 111 C-35.32 111 -36.64 111 -38 111 C-38.495 107.535 -38.495 107.535 -39 104 C-39.66 104 -40.32 104 -41 104 C-41.33 102.68 -41.66 101.36 -42 100 C-39.36 99.67 -36.72 99.34 -34 99 C-34 98.67 -34 98.34 -34 98 C-39.08303686 97.88679144 -39.08303686 97.88679144 -44 99 C-46.04296875 98.87890625 -46.04296875 98.87890625 -48.1875 98.5625 C-50.0746875 98.2840625 -50.0746875 98.2840625 -52 98 C-51.67 98.66 -51.34 99.32 -51 100 C-49.02 100 -47.04 100 -45 100 C-45 100.66 -45 101.32 -45 102 C-45.99 102.66 -46.98 103.32 -48 104 C-47.34 104.33 -46.68 104.66 -46 105 C-46.33 105.66 -46.66 106.32 -47 107 C-47.66 107 -48.32 107 -49 107 C-49.495 108.98 -49.495 108.98 -50 111 C-50.99 111 -51.98 111 -53 111 C-53 108.36 -53 105.72 -53 103 C-53.33 103 -53.66 103 -54 103 C-54.33 105.64 -54.66 108.28 -55 111 C-57.31 111 -59.62 111 -62 111 C-62.08153933 109.41753293 -62.13943557 107.83383727 -62.1875 106.25 C-62.22230469 105.36828125 -62.25710937 104.4865625 -62.29296875 103.578125 C-61.94923684 100.55328417 -60.99772541 99.24416398 -59 97 C-61.97 96.67 -64.94 96.34 -68 96 C-67.01 96.33 -66.02 96.66 -65 97 C-65.495 97.433125 -65.99 97.86625 -66.5 98.3125 C-68.33218192 99.99740483 -68.33218192 99.99740483 -68 103 C-68.99 103.66 -69.98 104.32 -71 105 C-70.34 105 -69.68 105 -69 105 C-69 105.99 -69 106.98 -69 108 C-75.55762712 107.38135593 -75.55762712 107.38135593 -77.8125 105.4375 C-78.204375 104.963125 -78.59625 104.48875 -79 104 C-79.66 104 -80.32 104 -81 104 C-81.66 104 -82.32 104 -83 104 C-82.34 101.69 -81.68 99.38 -81 97 C-83.49361571 98.20381448 -85.68143083 99.45428722 -88 101 C-89.32 99.68 -90.64 98.36 -92 97 C-91.649375 96.401875 -91.29875 95.80375 -90.9375 95.1875 C-89.66695302 92.89186786 -89.66695302 92.89186786 -91 90 C-92.65 91.98 -94.3 93.96 -96 96 C-96.99 94.68 -97.98 93.36 -99 92 C-98.34 92 -97.68 92 -97 92 C-94.60179695 89.36315253 -94.60179695 89.36315253 -94 86 C-95.98 86.99 -95.98 86.99 -98 88 C-98 88.66 -98 89.32 -98 90 C-99.98 90.495 -99.98 90.495 -102 91 C-102 87 -102 87 -101 85 C-102.98 85 -104.96 85 -107 85 C-106.67 83.35 -106.34 81.7 -106 80 C-107.65 80 -109.3 80 -111 80 C-112.65 77.03 -114.3 74.06 -116 71 C-116.66 71 -117.32 71 -118 71 C-118 70.34 -118 69.68 -118 69 C-117.01 68.505 -117.01 68.505 -116 68 C-116.66 68 -117.32 68 -118 68 C-117 65 -117 65 -114 63 C-115.65 62.67 -117.3 62.34 -119 62 C-119 61.34 -119 60.68 -119 60 C-117.40119187 59.58305004 -115.79558739 59.19209144 -114.1875 58.8125 C-113.29417969 58.59207031 -112.40085937 58.37164062 -111.48046875 58.14453125 C-109 58 -109 58 -107.17578125 59.44921875 C-106.59376953 60.21685547 -106.59376953 60.21685547 -106 61 C-106.226875 59.948125 -106.45375 58.89625 -106.6875 57.8125 C-107.95087909 47.29672702 -103.39543355 37.71301405 -98 29 C-99.98 28.34 -101.96 27.68 -104 27 C-104 26.34 -104 25.68 -104 25 C-105.45833358 23.37485532 -105.45833358 23.37485532 -107 22 C-106.01 20.35 -105.02 18.7 -104 17 C-101.69 17.33 -99.38 17.66 -97 18 C-97.185625 17.071875 -97.37125 16.14375 -97.5625 15.1875 C-98 12 -98 12 -97 9 C-100.30471559 9 -102.12021891 11.28343314 -104.625 13.3125 Z M-94.3828125 28.515625 C-97.75471547 32.33067836 -97.75471547 32.33067836 -99 37 C-87.31169841 37.80781839 -87.31169841 37.80781839 -77 33 C-77.66 32.01 -78.32 31.02 -79 30 C-72.33333333 25.33333333 -65.66666667 20.66666667 -59 16 C-61.97 19.63 -64.94 23.26 -68 27 C-67.67 27.66 -67.34 28.32 -67 29 C-68.65 30.98 -70.3 32.96 -72 35 C-69.58354218 35.16687448 -69.58354218 35.16687448 -67 35 C-66.34 34.34 -65.68 33.68 -65 33 C-64.01 33.33 -63.02 33.66 -62 34 C-62 32.68 -62 31.36 -62 30 C-60.3125 28.875 -60.3125 28.875 -58 28 C-55.25 28.875 -55.25 28.875 -53 30 C-53.495 28.02 -53.495 28.02 -54 26 C-50.535 25.505 -50.535 25.505 -47 25 C-46.505 26.485 -46.505 26.485 -46 28 C-45.34 27.01 -44.68 26.02 -44 25 C-40.875 24.8125 -40.875 24.8125 -38 25 C-38 26.32 -38 27.64 -38 29 C-37.34 29 -36.68 29 -36 29 C-35.34 28.34 -34.68 27.68 -34 27 C-32.35 27.66 -30.7 28.32 -29 29 C-29 29.66 -29 30.32 -29 31 C-25.06924356 30.42547254 -25.06924356 30.42547254 -22 28 C-22 27.01 -22 26.02 -22 25 C-20.35 25.99 -18.7 26.98 -17 28 C-16.505 26.515 -16.505 26.515 -16 25 C-15.01 24.34 -14.02 23.68 -13 23 C-13 22.34 -13 21.68 -13 21 C-12.05125 21.495 -11.1025 21.99 -10.125 22.5 C-7.27721834 24.14424369 -7.27721834 24.14424369 -5 24 C-3.15325113 26.23148822 -1.60794165 28.58808753 0 31 C-1.32 32.98 -2.64 34.96 -4 37 C0.62 37 5.24 37 10 37 C6.61262081 31.605285 3.11500991 26.49130033 -3 24 C-3 23.34 -3 22.68 -3 22 C-31.88763226 7.10946791 -69.61502642 2.36733937 -94.3828125 28.515625 Z M-79 12 C-79.33 12.99 -79.66 13.98 -80 15 C-78.68 14.34 -77.36 13.68 -76 13 C-76.99 12.67 -77.98 12.34 -79 12 Z M-15 11 C-15.66 11.66 -16.32 12.32 -17 13 C-16.01 13 -15.02 13 -14 13 C-14.33 12.34 -14.66 11.68 -15 11 Z M0 12 C0 12.99 0 13.98 0 15 C0.66 14.01 1.32 13.02 2 12 C1.34 12 0.68 12 0 12 Z M-90 13 C-90 13.66 -90 14.32 -90 15 C-89.34 14.67 -88.68 14.34 -88 14 C-88.66 13.67 -89.32 13.34 -90 13 Z M-4 17 C-4.33 17.66 -4.66 18.32 -5 19 C-4.34 19 -3.68 19 -3 19 C-3.33 18.34 -3.66 17.68 -4 17 Z M-97 18 C-97.66 18.66 -98.32 19.32 -99 20 C-98.01 20 -97.02 20 -96 20 C-96.33 19.34 -96.66 18.68 -97 18 Z M-91 19 C-90.67 19.99 -90.34 20.98 -90 22 C-89.34 21.34 -88.68 20.68 -88 20 C-88.99 19.67 -89.98 19.34 -91 19 Z M0 19 C-0.33 19.99 -0.66 20.98 -1 22 C-0.34 22 0.32 22 1 22 C0.67 21.01 0.34 20.02 0 19 Z M12 20 C13 22 13 22 13 22 Z M-95 23 C-94.67 23.99 -94.34 24.98 -94 26 C-93.34 25.01 -92.68 24.02 -92 23 C-92.99 23 -93.98 23 -95 23 Z M-11 25 C-11.66 26.65 -12.32 28.3 -13 30 C-11.68 30.33 -10.36 30.66 -9 31 C-9 31.66 -9 32.32 -9 33 C-8.01 33.33 -7.02 33.66 -6 34 C-5.34 32.68 -4.68 31.36 -4 30 C-7.17337748 26.75348408 -7.17337748 26.75348408 -11 25 Z M-43 27 C-43 28.32 -43 29.64 -43 31 C-47.75 30.25 -47.75 30.25 -50 28 C-50.33 29.32 -50.66 30.64 -51 32 C-52.98 32.33 -54.96 32.66 -57 33 C-57.33 32.01 -57.66 31.02 -58 30 C-58.99 30.495 -58.99 30.495 -60 31 C-60 32.98 -60 34.96 -60 37 C-61.32 37 -62.64 37 -64 37 C-64.66 39.31 -65.32 41.62 -66 44 C-66.66 44 -67.32 44 -68 44 C-68 45.98 -68 47.96 -68 50 C-69.32 50.33 -70.64 50.66 -72 51 C-68.75030231 51.11638036 -65.5011417 51.18730581 -62.25 51.25 C-60.86941406 51.30027344 -60.86941406 51.30027344 -59.4609375 51.3515625 C-54.07713235 51.56511429 -54.07713235 51.56511429 -49.5546875 49.00390625 C-48.78511719 48.01197266 -48.78511719 48.01197266 -48 47 C-44.85477278 46.68547728 -42.84083641 46.57958179 -40 48 C-39.505 49.485 -39.505 49.485 -39 51 C-33.06 51 -27.12 51 -21 51 C-21 49.1457163 -21.01728701 47.29123241 -21.0625 45.4375 C-21 43 -21 43 -20 41 C-21.32 40.67 -22.64 40.34 -24 40 C-24 38.68 -24 37.36 -24 36 C-24.495 35.01 -24.495 35.01 -25 34 C-26.423125 34.0928125 -26.423125 34.0928125 -27.875 34.1875 C-28.90625 34.125625 -29.9375 34.06375 -31 34 C-31.66 33.01 -32.32 32.02 -33 31 C-33.99 31.33 -34.98 31.66 -36 32 C-38.6875 31.5625 -38.6875 31.5625 -41 31 C-41 29.68 -41 28.36 -41 27 C-41.66 27 -42.32 27 -43 27 Z M-22 34 C-21.67 34.99 -21.34 35.98 -21 37 C-20.34 36.67 -19.68 36.34 -19 36 C-19.99 35.34 -20.98 34.68 -22 34 Z M-13 35 C-13 35.66 -13 36.32 -13 37 C-12.34 36.67 -11.68 36.34 -11 36 C-11.66 35.67 -12.32 35.34 -13 35 Z M-66 36 C-65.67 36.66 -65.34 37.32 -65 38 C-64.67 37.34 -64.34 36.68 -64 36 C-64.66 36 -65.32 36 -66 36 Z M-101 39 C-101.33 39.66 -101.66 40.32 -102 41 C-98.87507749 41.05791844 -95.75029234 41.09356746 -92.625 41.125 C-91.29082031 41.15013672 -91.29082031 41.15013672 -89.9296875 41.17578125 C-89.07890625 41.18222656 -88.228125 41.18867187 -87.3515625 41.1953125 C-86.56604004 41.20578613 -85.78051758 41.21625977 -84.97119141 41.22705078 C-82.765535 41.17990127 -82.765535 41.17990127 -81 39 C-87.6 39 -94.2 39 -101 39 Z M-73 39 C-70.1575146 40.57273568 -70.1575146 40.57273568 -67 41 C-67 40.34 -67 39.68 -67 39 C-68.98 39 -70.96 39 -73 39 Z M-19 39 C-18.67 39.66 -18.34 40.32 -18 41 C-17.34 40.67 -16.68 40.34 -16 40 C-16.99 39.67 -17.98 39.34 -19 39 Z M-3 39 C-3 39.66 -3 40.32 -3 41 C1.95 41 6.9 41 12 41 C11.67 40.34 11.34 39.68 11 39 C6.38 39 1.76 39 -3 39 Z M-103 43 C-103 43.66 -103 44.32 -103 45 C-97.72 45 -92.44 45 -87 45 C-87.33 44.34 -87.66 43.68 -88 43 C-92.95 43 -97.9 43 -103 43 Z M-79 43 C-79.66 43.66 -80.32 44.32 -81 45 C-79.68 44.67 -78.36 44.34 -77 44 C-77.66 43.67 -78.32 43.34 -79 43 Z M-76 43 C-76.33 43.66 -76.66 44.32 -77 45 C-75.68 45 -74.36 45 -73 45 C-73 44.34 -73 43.68 -73 43 C-73.99 43 -74.98 43 -76 43 Z M-16 43 C-16.33 43.66 -16.66 44.32 -17 45 C-14.36 45 -11.72 45 -9 45 C-9 44.34 -9 43.68 -9 43 C-11.31 43 -13.62 43 -16 43 Z M-4 43 C-4.33 43.66 -4.66 44.32 -5 45 C0.94 45 6.88 45 13 45 C12.67 44.34 12.34 43.68 12 43 C6.72 43 1.44 43 -4 43 Z M-104 47 C-104 47.33 -104 47.66 -104 48 C-99.38 48 -94.76 48 -90 48 C-90 47.67 -90 47.34 -90 47 C-94.62 47 -99.24 47 -104 47 Z M-86 47 C-86 47.33 -86 47.66 -86 48 C-83.69 48 -81.38 48 -79 48 C-79 47.67 -79 47.34 -79 47 C-81.31 47 -83.62 47 -86 47 Z M-78 47 C-74 48 -74 48 -74 48 Z M-16 47 C-16 47.33 -16 47.66 -16 48 C-6.1 48 3.8 48 14 48 C14 47.67 14 47.34 14 47 C4.1 47 -5.8 47 -16 47 Z M-47.75 48.875 C-48.86375 49.431875 -48.86375 49.431875 -50 50 C-46.67465243 51.10844919 -44.37817425 50.84454356 -41 50 C-43.72901505 48.18065663 -44.53599416 47.85236178 -47.75 48.875 Z M-19 49 C-19.33 49.66 -19.66 50.32 -20 51 C-19.34 51 -18.68 51 -18 51 C-18.33 50.34 -18.66 49.68 -19 49 Z M-90 50 C-90 50.33 -90 50.66 -90 51 C-87.03 51 -84.06 51 -81 51 C-81 50.67 -81 50.34 -81 50 C-83.97 50 -86.94 50 -90 50 Z M-16 50 C-16 50.33 -16 50.66 -16 51 C-6.1 51 3.8 51 14 51 C14 50.67 14 50.34 14 50 C4.1 50 -5.8 50 -16 50 Z M-77 54 C-76.979375 54.721875 -76.95875 55.44375 -76.9375 56.1875 C-77 59 -77 59 -77.90234375 61.62109375 C-79.21717736 65.6685353 -79.92898993 69.68473527 -80.625 73.875 C-80.7590625 74.65875 -80.893125 75.4425 -81.03125 76.25 C-81.35836422 78.16595474 -81.67976884 80.08288282 -82 82 C-81.37657715 81.98952637 -80.7531543 81.97905273 -80.11083984 81.96826172 C-68.22139178 81.79518886 -56.71705369 81.72563256 -45 84 C-46.39088953 80.91289113 -46.39088953 80.91289113 -48.875 78.6875 C-51.35009306 77.8867346 -52.58287634 78.13674155 -55 79 C-53.87695312 76.41210938 -53.87695312 76.41210938 -52.75390625 73.82421875 C-52.10038058 72.24288979 -51.54108198 70.62324594 -51 69 C-54.25397508 66.74114676 -54.25397508 66.74114676 -58 66 C-58 64.68 -58 63.36 -58 62 C-54.7 62.33 -51.4 62.66 -48 63 C-47.855625 62.05125 -47.71125 61.1025 -47.5625 60.125 C-47 57 -47 57 -46 55 C-45.01 54.34 -44.02 53.68 -43 53 C-47.68139254 52.97534712 -52.36274759 52.95716261 -57.04418945 52.94506836 C-58.63794614 52.94002843 -60.23169819 52.9331965 -61.82543945 52.92456055 C-64.11150253 52.91248001 -66.39750467 52.90676845 -68.68359375 52.90234375 C-69.7586039 52.89460182 -69.7586039 52.89460182 -70.85533142 52.88670349 C-74.2120654 52.58767174 -74.2120654 52.58767174 -77 54 Z M-42 53 C-43.04449911 56.13349732 -42.93423645 56.98968256 -42 60 C-40.02 59.34 -38.04 58.68 -36 58 C-35.34 58.66 -34.68 59.32 -34 60 C-35.32 62.31 -36.64 64.62 -38 67 C-37.360625 67.28875 -36.72125 67.5775 -36.0625 67.875 C-34 69 -34 69 -33 71 C-32.34 71 -31.68 71 -31 71 C-31 72.32 -31 73.64 -31 75 C-34.3 74.67 -37.6 74.34 -41 74 C-41.99 77.3 -42.98 80.6 -44 84 C-39.0443314 83.50443314 -34.20625366 82.86370036 -29.3125 81.9375 C-23.4599911 80.89939431 -17.85886026 80.95182467 -11.93359375 81.22265625 C-9.04475433 81.21690091 -9.04475433 81.21690091 -7.0234375 79.85546875 C-5.74514014 77.95879697 -5.74514014 77.95879697 -6.29296875 75.328125 C-6.73576172 73.80445313 -6.73576172 73.80445313 -7.1875 72.25 C-7.48914063 71.18007812 -7.79078125 70.11015625 -8.1015625 69.0078125 C-8.54628906 67.51894531 -8.54628906 67.51894531 -9 66 C-9.35480532 64.70850862 -9.70911554 63.41688089 -10.0625 62.125 C-10.98068794 59.06437353 -11.98952964 56.03141108 -13 53 C-22.57 53 -32.14 53 -42 53 Z M-99 54 C-99 54.33 -99 54.66 -99 55 C-93.39 55 -87.78 55 -82 55 C-82 54.67 -82 54.34 -82 54 C-87.61 54 -93.22 54 -99 54 Z M-3 54 C-3 54.33 -3 54.66 -3 55 C2.61 55 8.22 55 14 55 C14 54.67 14 54.34 14 54 C8.39 54 2.78 54 -3 54 Z M-101 57 C-101 57.33 -101 57.66 -101 58 C-94.73 58 -88.46 58 -82 58 C-82 57.67 -82 57.34 -82 57 C-88.27 57 -94.54 57 -101 57 Z M-4 57 C-4 57.33 -4 57.66 -4 58 C1.94 58 7.88 58 14 58 C14 57.67 14 57.34 14 57 C8.06 57 2.12 57 -4 57 Z M16 57 C17 59 17 59 17 59 Z M-46 59 C-46 60.32 -46 61.64 -46 63 C-45.34 63 -44.68 63 -44 63 C-44 61.68 -44 60.36 -44 59 C-44.66 59 -45.32 59 -46 59 Z M17 59 C17 60.32 17 61.64 17 63 C17.99 62.34 18.98 61.68 20 61 C19.34 61 18.68 61 18 61 C17.67 60.34 17.34 59.68 17 59 Z M-103 60 C-103 60.66 -103 61.32 -103 62 C-95.41 62 -87.82 62 -80 62 C-80 61.34 -80 60.68 -80 60 C-87.59 60 -95.18 60 -103 60 Z M-39.5625 61.5 C-40.036875 61.995 -40.51125 62.49 -41 63 C-40.67 63.99 -40.34 64.98 -40 66 C-40 65.34 -40 64.68 -40 64 C-39.34 64 -38.68 64 -38 64 C-37.67 62.68 -37.34 61.36 -37 60 C-38.24076302 59.88457803 -38.24076302 59.88457803 -39.5625 61.5 Z M-9 60 C-8.34 60.66 -7.68 61.32 -7 62 C-7 61.34 -7 60.68 -7 60 C-7.66 60 -8.32 60 -9 60 Z M-6 60 C-6 60.66 -6 61.32 -6 62 C0.27 62 6.54 62 13 62 C13 61.34 13 60.68 13 60 C6.73 60 0.46 60 -6 60 Z M-107 62 C-107 63.32 -107 64.64 -107 66 C-106.34 66 -105.68 66 -105 66 C-105 67.32 -105 68.64 -105 70 C-104.34 70 -103.68 70 -103 70 C-103.52268466 67.23723823 -104.10869587 64.6739124 -105 62 C-105.66 62 -106.32 62 -107 62 Z M15 62 C16 64 16 64 16 64 Z M-102 64 C-102 64.33 -102 64.66 -102 65 C-95.07 65 -88.14 65 -81 65 C-81 64.67 -81 64.34 -81 64 C-87.93 64 -94.86 64 -102 64 Z M-55 64 C-53.62514468 65.54166642 -53.62514468 65.54166642 -52 67 C-51.34 67 -50.68 67 -50 67 C-50 66.34 -50 65.68 -50 65 C-51.65 64.67 -53.3 64.34 -55 64 Z M-7 64 C-7 64.33 -7 64.66 -7 65 C-0.73 65 5.54 65 12 65 C12 64.67 12 64.34 12 64 C5.73 64 -0.54 64 -7 64 Z M14.4375 65.5 C13.963125 65.995 13.48875 66.49 13 67 C13.66 67.66 14.32 68.32 15 69 C15.66 67.35 16.32 65.7 17 64 C15.75923698 63.88457803 15.75923698 63.88457803 14.4375 65.5 Z M21 65 C21.33 65.66 21.66 66.32 22 67 C22.33 66.34 22.66 65.68 23 65 C22.34 65 21.68 65 21 65 Z M-101 67 C-101 67.33 -101 67.66 -101 68 C-94.4 68 -87.8 68 -81 68 C-81 67.67 -81 67.34 -81 67 C-87.6 67 -94.2 67 -101 67 Z M-4 67 C-4 67.33 -4 67.66 -4 68 C0.95 68 5.9 68 11 68 C11 67.67 11 67.34 11 67 C6.05 67 1.1 67 -4 67 Z M-41 69 C-40.67 69.99 -40.34 70.98 -40 72 C-39.34 71.67 -38.68 71.34 -38 71 C-38.33 70.34 -38.66 69.68 -39 69 C-39.66 69 -40.32 69 -41 69 Z M13 69 C12.01 70.485 12.01 70.485 11 72 C11.99 72.495 11.99 72.495 13 73 C13.66 72.34 14.32 71.68 15 71 C14.34 70.34 13.68 69.68 13 69 Z M-99 70 C-99 70.66 -99 71.32 -99 72 C-98.34 71.67 -97.68 71.34 -97 71 C-97.66 70.67 -98.32 70.34 -99 70 Z M-97 70 C-95.11153817 72.32866229 -95.11153817 72.32866229 -91.9609375 72.1953125 C-90.77757812 72.17210938 -89.59421875 72.14890625 -88.375 72.125 C-87.18648437 72.10695313 -85.99796875 72.08890625 -84.7734375 72.0703125 C-83.85820313 72.04710938 -82.94296875 72.02390625 -82 72 C-82 71.34 -82 70.68 -82 70 C-86.95 70 -91.9 70 -97 70 Z M-38 70 C-37.67 70.66 -37.34 71.32 -37 72 C-36.34 71.67 -35.68 71.34 -35 71 C-35.99 70.67 -36.98 70.34 -38 70 Z M-6 70 C-5.67 70.66 -5.34 71.32 -5 72 C-0.71 72 3.58 72 8 72 C8.33 71.34 8.66 70.68 9 70 C4.05 70 -0.9 70 -6 70 Z M-102 71 C-101 73 -101 73 -101 73 Z M-49 71 C-49.99 71.99 -50.98 72.98 -52 74 C-51.67 74.66 -51.34 75.32 -51 76 C-50.01 75.34 -49.02 74.68 -48 74 C-48.33 73.01 -48.66 72.02 -49 71 Z M-101 73 C-100 75 -100 75 -100 75 Z M10 73 C8.42159428 74.55705194 8.42159428 74.55705194 6.875 76.5 C6.33617187 77.1496875 5.79734375 77.799375 5.2421875 78.46875 C4.83226562 78.9740625 4.42234375 79.479375 4 80 C4.33 80.66 4.66 81.32 5 82 C6.32 82 7.64 82 9 82 C9.33 81.34 9.66 80.68 10 80 C10.66 79.67 11.32 79.34 12 79 C11.34 79 10.68 79 10 79 C10.66 77.02 11.32 75.04 12 73 C11.34 73 10.68 73 10 73 Z M-96 74 C-96 74.33 -96 74.66 -96 75 C-91.71 75 -87.42 75 -83 75 C-83 74.67 -83 74.34 -83 74 C-87.29 74 -91.58 74 -96 74 Z M-46 74 C-45.67 75.98 -45.34 77.96 -45 80 C-44.67 80 -44.34 80 -44 80 C-43.67 77.69 -43.34 75.38 -43 73 C-44.2236068 72.9254644 -44.2236068 72.9254644 -46 74 Z M-5 74 C-5 74.33 -5 74.66 -5 75 C-2.03 75 0.94 75 4 75 C4 74.67 4 74.34 4 74 C1.03 74 -1.94 74 -5 74 Z M-105 77 C-105 77.99 -105 78.98 -105 80 C-104.34 79.67 -103.68 79.34 -103 79 C-103.66 78.34 -104.32 77.68 -105 77 Z M-93 77 C-93 77.33 -93 77.66 -93 78 C-89.7 78 -86.4 78 -83 78 C-83 77.67 -83 77.34 -83 77 C-86.3 77 -89.6 77 -93 77 Z M-4 77 C-4 77.33 -4 77.66 -4 78 C-2.35 78 -0.7 78 1 78 C1 77.67 1 77.34 1 77 C-0.65 77 -2.3 77 -4 77 Z M-97 78 C-96.34 79.32 -95.68 80.64 -95 82 C-94.01 82 -93.02 82 -92 82 C-93.65 80.68 -95.3 79.36 -97 78 Z M-89 81 C-85 82 -85 82 -85 82 Z M11 81 C11 81.99 11 82.98 11 84 C11.66 83.67 12.32 83.34 13 83 C13 82.34 13 81.68 13 81 C12.34 81 11.68 81 11 81 Z M-100 82 C-99 84 -99 84 -99 84 Z M2 82 C2 82.99 2 83.98 2 85 C2.99 84.34 3.98 83.68 5 83 C4.01 82.67 3.02 82.34 2 82 Z M14 82 C14 82.99 14 83.98 14 85 C14.99 84.34 15.98 83.68 17 83 C16.01 82.67 15.02 82.34 14 82 Z M-91 84 C-90.34 84.66 -89.68 85.32 -89 86 C-89 85.34 -89 84.68 -89 84 C-89.66 84 -90.32 84 -91 84 Z M-1 84 C-1.33 85.32 -1.66 86.64 -2 88 C-1.01 87.01 -0.02 86.02 1 85 C0.34 84.67 -0.32 84.34 -1 84 Z M-87 87 C-86.67 87.66 -86.34 88.32 -86 89 C-85.34 88.67 -84.68 88.34 -84 88 C-84.99 87.67 -85.98 87.34 -87 87 Z M-4 87 C-4.33 87.66 -4.66 88.32 -5 89 C-4.34 89 -3.68 89 -3 89 C-3.33 88.34 -3.66 87.68 -4 87 Z M-74 90 C-74 90.33 -74 90.66 -74 91 C-55.52 91 -37.04 91 -18 91 C-18 90.67 -18 90.34 -18 90 C-36.48 90 -54.96 90 -74 90 Z M-10 90 C-10.66 90.66 -11.32 91.32 -12 92 C-11.01 92.33 -10.02 92.66 -9 93 C-8.34 92.01 -7.68 91.02 -7 90 C-7.99 90 -8.98 90 -10 90 Z M-14 92 C-13.67 93.32 -13.34 94.64 -13 96 C-12.67 94.68 -12.34 93.36 -12 92 C-12.66 92 -13.32 92 -14 92 Z M-17 93 C-17.66 93.66 -18.32 94.32 -19 95 C-17.68 95 -16.36 95 -15 95 C-15 94.34 -15 93.68 -15 93 C-15.66 93 -16.32 93 -17 93 Z M-62 94 C-62 94.33 -62 94.66 -62 95 C-60.35 95 -58.7 95 -57 95 C-57 94.67 -57 94.34 -57 94 C-58.65 94 -60.3 94 -62 94 Z M-56 94 C-56 94.33 -56 94.66 -56 95 C-47.09 95 -38.18 95 -29 95 C-29 94.67 -29 94.34 -29 94 C-37.91 94 -46.82 94 -56 94 Z M-8 95 C-7 97 -7 97 -7 97 Z M3 95 C4 97 4 97 4 97 Z M-23 95 C-23.99 95.495 -23.99 95.495 -25 96 C-24.67 96.66 -24.34 97.32 -24 98 C-23.34 97.67 -22.68 97.34 -22 97 C-22.33 96.34 -22.66 95.68 -23 95 Z M-13 96 C-12 98 -12 98 -12 98 Z M-31 97 C-31.33 97.66 -31.66 98.32 -32 99 C-30.02 98.67 -28.04 98.34 -26 98 C-26 97.67 -26 97.34 -26 97 C-27.65 97 -29.3 97 -31 97 Z M-77 98 C-76.01 99.485 -76.01 99.485 -75 101 C-74.67 100.01 -74.34 99.02 -74 98 C-74.99 98 -75.98 98 -77 98 Z M-57 98 C-55.02 98.99 -55.02 98.99 -53 100 C-53 99.34 -53 98.68 -53 98 C-54.32 98 -55.64 98 -57 98 Z M12 98 C12 101 12 101 12 101 Z M-7 99 C-6.34 99.66 -5.68 100.32 -5 101 C-5 100.34 -5 99.68 -5 99 C-5.66 99 -6.32 99 -7 99 Z M-78 100 C-78.33 100.99 -78.66 101.98 -79 103 C-78.01 103.33 -77.02 103.66 -76 104 C-76.33 102.68 -76.66 101.36 -77 100 C-77.33 100 -77.66 100 -78 100 Z M18 100 C20.31232422 102.56249975 20.31232422 102.56249975 23 105 C23.99 105 24.98 105 26 105 C26 105.66 26 106.32 26 107 C26.66 107 27.32 107 28 107 C28.33 107.99 28.66 108.98 29 110 C32.45076717 113.31411914 32.45076717 113.31411914 37 114 C38.17571451 117.67410785 38.07366746 121.16929183 38 125 C38.66 125 39.32 125 40 125 C40 125.66 40 126.32 40 127 C42.31 127.66 44.62 128.32 47 129 C47 125.98509443 46.48047265 124.13135886 45.5 121.3125 C45.2215625 120.50425781 44.943125 119.69601563 44.65625 118.86328125 C44.4396875 118.24839844 44.223125 117.63351563 44 117 C44.5053125 116.59007812 45.010625 116.18015625 45.53125 115.7578125 C46.1809375 115.21898437 46.830625 114.68015625 47.5 114.125 C48.1496875 113.59132813 48.799375 113.05765625 49.46875 112.5078125 C49.9740625 112.01023437 50.479375 111.51265625 51 111 C51 110.34 51 109.68 51 109 C51.66 108.67 52.32 108.34 53 108 C42.75703973 101.06122046 30.06338374 99.58718459 18 100 Z M-20 101 C-19.67 102.32 -19.34 103.64 -19 105 C-19 104.01 -19 103.02 -19 102 C-18.34 101.67 -17.68 101.34 -17 101 C-17.99 101 -18.98 101 -20 101 Z M3 104 C3 104.66 3 105.32 3 106 C2.01 106.33 1.02 106.66 0 107 C3.63 107.33 7.26 107.66 11 108 C12.45314664 103.39467611 12.45314664 103.39467611 11 101 C7.40142046 101 5.90548882 101.95830515 3 104 Z M15 101 C14.67 103.64 14.34 106.28 14 109 C20.28275689 111.64472478 20.28275689 111.64472478 27 112 C23.68542782 107.30435607 19.63720719 104.27530896 15 101 Z M-98 102 C-97.67 104.64 -97.34 107.28 -97 110 C-92.545 109.505 -92.545 109.505 -88 109 C-90.31232422 106.43750025 -90.31232422 106.43750025 -93 104 C-93.99 104 -94.98 104 -96 104 C-96 103.34 -96 102.68 -96 102 C-96.66 102 -97.32 102 -98 102 Z M-25 103 C-24 106 -24 106 -24 106 Z M-138 112 C-136.71034824 113.37562854 -135.37310707 114.70766393 -134 116 C-133.34 116 -132.68 116 -132 116 C-131 118 -130 120 -129 122 C-129.77734375 124.09375 -129.77734375 124.09375 -130.9375 126.5 C-132.52851428 129.62012137 -132.52851428 129.62012137 -133 133 C-130.03 132.01 -127.06 131.02 -124 130 C-124.103125 128.618125 -124.20625 127.23625 -124.3125 125.8125 C-124.29051717 122.28975197 -124.22150422 121.30010249 -122.0625 118.375 C-120.30058075 117.00861364 -118.5371562 115.64415337 -116.76953125 114.28515625 C-115.97933594 113.67542969 -115.18914062 113.06570312 -114.375 112.4375 C-113.61960937 111.87933594 -112.86421875 111.32117188 -112.0859375 110.74609375 C-109.99917588 108.99931014 -108.53601188 107.23553321 -107 105 C-108.56626006 103.43373994 -110.07075549 103.7542833 -112.25 103.6875 C-121.47814203 103.78017861 -130.31798573 106.99775815 -138 112 Z M-59 104 C-58 107 -58 107 -58 107 Z M-106.5625 109 C-107.80193359 110.11375 -107.80193359 110.11375 -109.06640625 111.25 C-110.02353516 112.11625 -110.02353516 112.11625 -111 113 C-110.67 113.66 -110.34 114.32 -110 115 C-106.53058454 114.54177532 -103.32604951 114.10868317 -100 113 C-100.33 110.36 -100.66 107.72 -101 105 C-103.10348858 105 -105.11617383 107.69626937 -106.5625 109 Z M-112 114 C-112.99 114.99 -113.98 115.98 -115 117 C-113.68 116.67 -112.36 116.34 -111 116 C-111.33 115.34 -111.66 114.68 -112 114 Z M-19 120 C-19 120.66 -19 121.32 -19 122 C-18.34 122 -17.68 122 -17 122 C-17 121.34 -17 120.68 -17 120 C-17.66 120 -18.32 120 -19 120 Z M-7 121 C-6 123 -6 123 -6 123 Z M-3 122 C-3.66 124.31 -4.32 126.62 -5 129 C-5.66 128.34 -6.32 127.68 -7 127 C-9.31856917 125.45428722 -11.50638429 124.20381448 -14 123 C-14.33 124.32 -14.66 125.64 -15 127 C-14.01 127.33 -13.02 127.66 -12 128 C-12 129.66666667 -12 131.33333333 -12 133 C-10.2365625 132.938125 -10.2365625 132.938125 -8.4375 132.875 C-4.34058799 132.86052328 -0.92523474 133.81502348 3 135 C3.825 135 4.65 135 5.5 135 C8.88651382 135 11.78690861 135.99197133 15 137 C15 135.68 15 134.36 15 133 C15 131.33333333 15 129.66666667 15 128 C13.02 128 11.04 128 9 128 C8.67 128.99 8.34 129.98 8 131 C5.48916886 129.74458443 5.12874554 128.49936512 4 126 C2.68 126 1.36 126 0 126 C-0.33 124.68 -0.66 123.36 -1 122 C-1.66 122 -2.32 122 -3 122 Z M5 123 C6 126 6 126 6 126 Z M9 123 C8.67 124.65 8.34 126.3 8 128 C8.66 127.67 9.32 127.34 10 127 C9.67 125.68 9.34 124.36 9 123 Z M-14 130 C-14.66 130.66 -15.32 131.32 -16 132 C-15.01 132 -14.02 132 -13 132 C-13.33 131.34 -13.66 130.68 -14 130 Z " fill="#09090A" transform="translate(155,42)"/>
<path d="M0 0 C0.99 0 1.98 0 3 0 C3.66 1.65 4.32 3.3 5 5 C5.78375 4.67 6.5675 4.34 7.375 4 C10 3 10 3 12 3 C13 6 13 6 12.22265625 7.82421875 C11.1484375 9.54947917 10.07421875 11.27473958 9 13 C10.32 13.66 11.64 14.32 13 15 C13 15.66 13 16.32 13 17 C13.66 17 14.32 17 15 17 C15 18.32 15 19.64 15 21 C11.7 20.67 8.4 20.34 5 20 C4.855625 21.11375 4.71125 22.2275 4.5625 23.375 C4 27 4 27 3 29 C5.60423592 29.02697137 8.20819244 29.04682489 10.8125 29.0625 C11.55048828 29.07087891 12.28847656 29.07925781 13.04882812 29.08789062 C16.29922068 29.10259828 18.89404895 29.03531702 22 28 C24.33175914 27.90471177 26.66629974 27.87013812 29 27.875 C30.85625 27.87113281 30.85625 27.87113281 32.75 27.8671875 C36 28 36 28 39 29 C41.06618749 28.90731495 41.06618749 28.90731495 43.1875 28.5625 C44.445625 28.376875 45.70375 28.19125 47 28 C46.0409375 28.433125 46.0409375 28.433125 45.0625 28.875 C42.84793921 29.82823451 42.84793921 29.82823451 42 32 C41.34 32 40.68 32 40 32 C40 32.99 40 33.98 40 35 C15.25 35 -9.5 35 -35 35 C-35.66 33.02 -36.32 31.04 -37 29 C-33.02084915 28.97065856 -29.04172663 28.95308735 -25.0625 28.9375 C-23.94552734 28.92912109 -22.82855469 28.92074219 -21.67773438 28.91210938 C-16.67976705 28.89745258 -11.82718193 28.94700476 -6.87109375 29.62890625 C-2.94110215 30.41686687 -2.94110215 30.41686687 0 28 C-1.12109566 26.37506099 -1.12109566 26.37506099 -3 25 C-6.12549017 24.74951364 -6.12549017 24.74951364 -9 25 C-8.5205537 20.78087253 -7.83374881 18.20336822 -5 15 C-5.598125 14.87625 -6.19625 14.7525 -6.8125 14.625 C-9 14 -9 14 -12 12 C-12 10.68 -12 9.36 -12 8 C-4.25 7.875 -4.25 7.875 -2 9 C-2.226875 8.443125 -2.45375 7.88625 -2.6875 7.3125 C-3 5 -3 5 -1.75 2.25 C-0.88375 1.13625 -0.88375 1.13625 0 0 Z M0 5 C0 6.32 0 7.64 0 9 C0.66 9 1.32 9 2 9 C2 7.68 2 6.36 2 5 C1.34 5 0.68 5 0 5 Z M6.4375 7.5 C5.963125 7.995 5.48875 8.49 5 9 C5.33 9.99 5.66 10.98 6 12 C6 11.34 6 10.68 6 10 C6.66 10 7.32 10 8 10 C8.33 8.68 8.66 7.36 9 6 C7.75923698 5.88457803 7.75923698 5.88457803 6.4375 7.5 Z M-9 10 C-7.62514468 11.54166642 -7.62514468 11.54166642 -6 13 C-5.34 13 -4.68 13 -4 13 C-4 12.34 -4 11.68 -4 11 C-5.65 10.67 -7.3 10.34 -9 10 Z M5 15 C5.33 15.99 5.66 16.98 6 18 C6.66 17.67 7.32 17.34 8 17 C7.67 16.34 7.34 15.68 7 15 C6.34 15 5.68 15 5 15 Z M8 16 C8.33 16.66 8.66 17.32 9 18 C9.66 17.67 10.32 17.34 11 17 C10.01 16.67 9.02 16.34 8 16 Z M-3 17 C-3.99 17.99 -4.98 18.98 -6 20 C-5.67 20.66 -5.34 21.32 -5 22 C-4.01 21.34 -3.02 20.68 -2 20 C-2.33 19.01 -2.66 18.02 -3 17 Z M0 20 C0.33 21.98 0.66 23.96 1 26 C1.33 26 1.66 26 2 26 C2.33 23.69 2.66 21.38 3 19 C1.7763932 18.9254644 1.7763932 18.9254644 0 20 Z " fill="#1C1C1C" transform="translate(109,96)"/>
<path d="M0 0 C0.99 0 1.98 0 3 0 C3.66 1.65 4.32 3.3 5 5 C5.78375 4.67 6.5675 4.34 7.375 4 C10 3 10 3 12 3 C13 6 13 6 12.22265625 7.82421875 C11.1484375 9.54947917 10.07421875 11.27473958 9 13 C10.32 13.66 11.64 14.32 13 15 C13 15.66 13 16.32 13 17 C13.66 17 14.32 17 15 17 C15 18.32 15 19.64 15 21 C11.7 20.67 8.4 20.34 5 20 C4.855625 21.051875 4.71125 22.10375 4.5625 23.1875 C4.12473034 26.15460549 3.62195134 29.06794366 3 32 C1 31 1 31 -0.4375 28.5 C-1.81319541 25.70844517 -1.81319541 25.70844517 -5 25 C-6.32 25 -7.64 25 -9 25 C-8.5205537 20.78087253 -7.83374881 18.20336822 -5 15 C-5.598125 14.87625 -6.19625 14.7525 -6.8125 14.625 C-9 14 -9 14 -12 12 C-12 10.68 -12 9.36 -12 8 C-4.25 7.875 -4.25 7.875 -2 9 C-2.226875 8.443125 -2.45375 7.88625 -2.6875 7.3125 C-3 5 -3 5 -1.75 2.25 C-1.1725 1.5075 -0.595 0.765 0 0 Z M0 5 C0 6.32 0 7.64 0 9 C0.66 9 1.32 9 2 9 C2 7.68 2 6.36 2 5 C1.34 5 0.68 5 0 5 Z M6.4375 7.5 C5.963125 7.995 5.48875 8.49 5 9 C5.33 9.99 5.66 10.98 6 12 C6 11.34 6 10.68 6 10 C6.66 10 7.32 10 8 10 C8.33 8.68 8.66 7.36 9 6 C7.75923698 5.88457803 7.75923698 5.88457803 6.4375 7.5 Z M-9 10 C-7.62514468 11.54166642 -7.62514468 11.54166642 -6 13 C-5.34 13 -4.68 13 -4 13 C-4 12.34 -4 11.68 -4 11 C-5.65 10.67 -7.3 10.34 -9 10 Z M5 15 C5.33 15.99 5.66 16.98 6 18 C6.66 17.67 7.32 17.34 8 17 C7.67 16.34 7.34 15.68 7 15 C6.34 15 5.68 15 5 15 Z M8 16 C8.33 16.66 8.66 17.32 9 18 C9.66 17.67 10.32 17.34 11 17 C10.01 16.67 9.02 16.34 8 16 Z M-3 17 C-3.99 17.99 -4.98 18.98 -6 20 C-5.67 20.66 -5.34 21.32 -5 22 C-4.01 21.34 -3.02 20.68 -2 20 C-2.33 19.01 -2.66 18.02 -3 17 Z M0 20 C0.33 21.98 0.66 23.96 1 26 C1.33 26 1.66 26 2 26 C2.33 23.69 2.66 21.38 3 19 C1.7763932 18.9254644 1.7763932 18.9254644 0 20 Z " fill="#080809" transform="translate(109,96)"/>
<path d="M0 0 C1.65 0 3.3 0 5 0 C5 0.99 5 1.98 5 3 C6.27875 2.814375 7.5575 2.62875 8.875 2.4375 C14.06638397 1.84325573 18.82665472 2.34422384 24 3 C23.67 5.97 23.34 8.94 23 12 C17.25 11.25 17.25 11.25 15 9 C14.01 9 13.02 9 12 9 C12 10.32 12 11.64 12 13 C7.125 9.375 7.125 9.375 6 6 C5.34 5.67 4.68 5.34 4 5 C4 7.64 4 10.28 4 13 C3.34 13 2.68 13 2 13 C2 12.34 2 11.68 2 11 C0.68 11.33 -0.64 11.66 -2 12 C-2 11.34 -2 10.68 -2 10 C-4.33075929 10.95865509 -4.33075929 10.95865509 -6 14 C-10.03174806 13.72510809 -11.56894631 13.46508424 -14.375 10.4375 C-15.179375 9.2309375 -15.179375 9.2309375 -16 8 C-15.67 7.67 -15.34 7.34 -15 7 C-15.66 6.67 -16.32 6.34 -17 6 C-16.67 5.34 -16.34 4.68 -16 4 C-13.28553021 3.68758545 -10.66090639 3.48663408 -7.9375 3.375 C-7.17888672 3.33632812 -6.42027344 3.29765625 -5.63867188 3.2578125 C-3.75952805 3.16326438 -1.87979664 3.08053244 0 3 C0 2.01 0 1.02 0 0 Z M12 5 C12 5.33 12 5.66 12 6 C13.65 6 15.3 6 17 6 C17 5.67 17 5.34 17 5 C15.35 5 13.7 5 12 5 Z M19 5 C18.67 6.32 18.34 7.64 18 9 C18.66 8.67 19.32 8.34 20 8 C19.67 7.01 19.34 6.02 19 5 Z M-10 6 C-9.34 6.66 -8.68 7.32 -8 8 C-8 7.34 -8 6.68 -8 6 C-8.66 6 -9.32 6 -10 6 Z M-5 6 C-4.01 7.485 -4.01 7.485 -3 9 C-3 8.01 -3 7.02 -3 6 C-3.66 6 -4.32 6 -5 6 Z M0 7 C-0.33 7.66 -0.66 8.32 -1 9 C-0.34 9 0.32 9 1 9 C0.67 8.34 0.34 7.68 0 7 Z " fill="#060607" transform="translate(99,157)"/>
<path d="M0 0 C0.66 0.33 1.32 0.66 2 1 C1.67 2.98 1.34 4.96 1 7 C1.66 7.33 2.32 7.66 3 8 C0.81542614 10.51225994 -0.70122369 11.50018541 -4 12 C-7 12 -10 12 -13 12 C-13.33 10.02 -13.66 8.04 -14 6 C-15.33332095 8.6666419 -14.67102033 10.16680303 -14 13 C-16.64 13 -19.28 13 -22 13 C-22.99 11.02 -23.98 9.04 -25 7 C-24.67 7.763125 -24.34 8.52625 -24 9.3125 C-23 12 -23 12 -23 15 C-24.875 14.8125 -24.875 14.8125 -27 14 C-28.1875 11.5625 -28.1875 11.5625 -29 9 C-29.33 8.34 -29.66 7.68 -30 7 C-29.4375 4.9375 -29.4375 4.9375 -28 3 C-24.34641155 1.84154512 -21.28632016 2.04141936 -17.5625 2.5625 C-13.25304203 3.14192292 -10.15136463 2.3571769 -6 1 C-4.33372702 0.96377667 -2.66594626 0.95100158 -1 1 C-0.67 0.67 -0.34 0.34 0 0 Z M-3 3 C-3.33 3.99 -3.66 4.98 -4 6 C-3.34 6 -2.68 6 -2 6 C-2.33 5.01 -2.66 4.02 -3 3 Z M-26 4 C-26 4.66 -26 5.32 -26 6 C-25.34 6 -24.68 6 -24 6 C-24 5.34 -24 4.68 -24 4 C-24.66 4 -25.32 4 -26 4 Z M-7 6 C-6 8 -6 8 -6 8 Z M-2 7 C-2.33 7.99 -2.66 8.98 -3 10 C-2.34 10 -1.68 10 -1 10 C-1.33 9.01 -1.66 8.02 -2 7 Z M-20 8 C-19.67 8.66 -19.34 9.32 -19 10 C-18.67 9.34 -18.34 8.68 -18 8 C-18.66 8 -19.32 8 -20 8 Z " fill="#0A090A" transform="translate(73,162)"/>
<path d="M0 0 C1.32 0.33 2.64 0.66 4 1 C4 1.66 4 2.32 4 3 C8.62 3 13.24 3 18 3 C18 3.33 18 3.66 18 4 C11.565 4.495 11.565 4.495 5 5 C5 5.66 5 6.32 5 7 C8.63 7 12.26 7 16 7 C16 7.33 16 7.66 16 8 C13.36 8.33 10.72 8.66 8 9 C14.6 9.33 21.2 9.66 28 10 C28 10.66 28 11.32 28 12 C20.08 12 12.16 12 4 12 C3.67 10.35 3.34 8.7 3 7 C2.21625 7.66 1.4325 8.32 0.625 9 C-2 11 -2 11 -4 11 C-4 10.34 -4 9.68 -4 9 C-3.34 8.67 -2.68 8.34 -2 8 C-4.475 7.01 -4.475 7.01 -7 6 C-7 5.67 -7 5.34 -7 5 C-4.36 4.67 -1.72 4.34 1 4 C0.67 2.68 0.34 1.36 0 0 Z " fill="#121112" transform="translate(47,97)"/>
<path d="M0 0 C5.625 -0.25 5.625 -0.25 9 2 C9 2.66 9 3.32 9 4 C8.34 4 7.68 4 7 4 C7 4.66 7 5.32 7 6 C5.02819395 7.82358373 2.94381973 9.47002794 0.84765625 11.1484375 C-1.16611467 13.16646586 -1.82514821 14.16852904 -2 17 C-1.34 17.99 -0.68 18.98 0 20 C0 20.99 0 21.98 0 23 C-1.65 22.67 -3.3 22.34 -5 22 C-5.99 18.7 -6.98 15.4 -8 12 C-6.20963542 10.50260417 -4.41927083 9.00520833 -2.62890625 7.5078125 C-0.89194996 6.0777243 -0.89194996 6.0777243 0 4 C0.66 4 1.32 4 2 4 C2 3.01 2 2.02 2 1 C1.34 0.67 0.68 0.34 0 0 Z " fill="#101011" transform="translate(206,147)"/>
<path d="M0 0 C0.70125 0.2475 1.4025 0.495 2.125 0.75 C2.99125 0.853125 3.8575 0.95625 4.75 1.0625 C7.125 1.75 7.125 1.75 8.25 3.5625 C8.53875 4.284375 8.8275 5.00625 9.125 5.75 C10.10081759 7.10113205 11.09529741 8.43946944 12.125 9.75 C10.4375 12.25 10.4375 12.25 8.125 14.75 C5.375 15.0625 5.375 15.0625 3.125 14.75 C3.125 14.09 3.125 13.43 3.125 12.75 C2.135 12.42 1.145 12.09 0.125 11.75 C0.125 11.09 0.125 10.43 0.125 9.75 C-0.865 9.75 -1.855 9.75 -2.875 9.75 C-3.205 8.76 -3.535 7.77 -3.875 6.75 C-4.865 7.245 -4.865 7.245 -5.875 7.75 C-5.50787028 5.03324005 -5.14755401 3.13936287 -3.5625 0.875 C-1.875 -0.25 -1.875 -0.25 0 0 Z M0.125 3.75 C-0.535 5.4 -1.195 7.05 -1.875 8.75 C-0.555 9.08 0.765 9.41 2.125 9.75 C2.125 10.41 2.125 11.07 2.125 11.75 C3.115 12.08 4.105 12.41 5.125 12.75 C5.785 11.43 6.445 10.11 7.125 8.75 C3.95162252 5.50348408 3.95162252 5.50348408 0.125 3.75 Z " fill="#080809" transform="translate(143.875,63.25)"/>
<path d="M0 0 C2.43757413 -0.02698422 4.87484915 -0.04683099 7.3125 -0.0625 C8.00279297 -0.07087891 8.69308594 -0.07925781 9.40429688 -0.08789062 C12.5483025 -0.10307906 14.99420019 -0.00193327 18 1 C19 4 19 4 18.1875 6.625 C17 9 17 9 15 10 C13.17065435 10.14679934 11.33499757 10.22102635 9.5 10.25 C8.03046875 10.28867188 8.03046875 10.28867188 6.53125 10.328125 C5.6959375 10.21984375 4.860625 10.1115625 4 10 C3.34 9.01 2.68 8.02 2 7 C2.33 5.68 2.66 4.36 3 3 C7.29 3.33 11.58 3.66 16 4 C16 3.34 16 2.68 16 2 C8.08 2.495 8.08 2.495 0 3 C0 2.01 0 1.02 0 0 Z " fill="#141415" transform="translate(57,110)"/>
<path d="M0 0 C1.32 0.33 2.64 0.66 4 1 C4.66 0.67 5.32 0.34 6 0 C9 1 9 1 10.125 2.875 C12.10526316 7.68421053 12.10526316 7.68421053 11 11 C8.9375 11.6875 8.9375 11.6875 7 12 C7 9.69 7 7.38 7 5 C5.35 5.33 3.7 5.66 2 6 C3.32 6.66 4.64 7.32 6 8 C6 9.65 6 11.3 6 13 C6.66 13 7.32 13 8 13 C8 13.66 8 14.32 8 15 C6.02 15 4.04 15 2 15 C1.67 14.01 1.34 13.02 1 12 C0.01 12 -0.98 12 -2 12 C-1.34 8.04 -0.68 4.08 0 0 Z " fill="#060607" transform="translate(106,36)"/>
<path d="M0 0 C0.66 0.66 1.32 1.32 2 2 C-0.1875 4.5625 -0.1875 4.5625 -3 7 C-5.5 6.6875 -5.5 6.6875 -8 6 C-9.68236471 6.62599617 -11.3523962 7.28752268 -13 8 C-13.66 7.67 -14.32 7.34 -15 7 C-21.43337524 6.70951559 -27.86507974 6.75006802 -34.25 7.625 C-35.4875 7.74875 -36.725 7.8725 -38 8 C-38.66 7.34 -39.32 6.68 -40 6 C-30.2648233 3.89915262 -20.89613084 3.78894508 -11 4 C-10.67 3.34 -10.34 2.68 -10 2 C-7.78515625 1.296875 -7.78515625 1.296875 -5.0625 0.75 C-4.16660156 0.55921875 -3.27070313 0.3684375 -2.34765625 0.171875 C-1.57292969 0.11515625 -0.79820312 0.0584375 0 0 Z " fill="#060506" transform="translate(160,118)"/>
<path d="M0 0 C2.4375 0.375 2.4375 0.375 5 1 C6.60031344 4.20062687 5.03173691 6.72271806 4 10 C3.01 9.67 2.02 9.34 1 9 C1 10.98 1 12.96 1 15 C0.01 15.495 0.01 15.495 -1 16 C-1.66 15.67 -2.32 15.34 -3 15 C-3 14.34 -3 13.68 -3 13 C-3.639375 12.773125 -4.27875 12.54625 -4.9375 12.3125 C-7 11 -7 11 -7.625 8.4375 C-7.74875 7.633125 -7.8725 6.82875 -8 6 C-8.66 5.67 -9.32 5.34 -10 5 C-9.67 4.01 -9.34 3.02 -9 2 C-7.0625 2.625 -7.0625 2.625 -5 4 C-4.25 7.125 -4.25 7.125 -4 10 C-3.01 10 -2.02 10 -1 10 C-1.33 7.36 -1.66 4.72 -2 2 C-1.34 2 -0.68 2 0 2 C0 1.34 0 0.68 0 0 Z " fill="#121112" transform="translate(118,37)"/>
<path d="M0 0 C3.43078393 0.46470485 6.87950058 0.68976116 10.33203125 0.9375 C11.32396484 1.12505859 11.32396484 1.12505859 12.3359375 1.31640625 C12.6659375 1.97640625 12.9959375 2.63640625 13.3359375 3.31640625 C8.10847891 4.52274285 3.57065436 4.07253202 -1.6640625 3.31640625 C-1.3340625 4.63640625 -1.0040625 5.95640625 -0.6640625 7.31640625 C-1.6540625 7.64640625 -2.6440625 7.97640625 -3.6640625 8.31640625 C-4.6540625 7.65640625 -5.6440625 6.99640625 -6.6640625 6.31640625 C-7.3240625 6.31640625 -7.9840625 6.31640625 -8.6640625 6.31640625 C-8.6640625 5.65640625 -8.6640625 4.99640625 -8.6640625 4.31640625 C-9.6540625 3.98640625 -10.6440625 3.65640625 -11.6640625 3.31640625 C-10.6740625 2.98640625 -9.6840625 2.65640625 -8.6640625 2.31640625 C-8.6640625 1.65640625 -8.6640625 0.99640625 -8.6640625 0.31640625 C-5.42729926 -0.76251483 -3.32424184 -0.48813217 0 0 Z " fill="#0F0E0F" transform="translate(153.6640625,77.68359375)"/>
<path d="M0 0 C-4.86076336 3.24050891 -9.3122553 3.13729999 -15.0625 3.125 C-16.27035156 3.12757813 -17.47820313 3.13015625 -18.72265625 3.1328125 C-21.36737407 3.02563681 -23.49533692 2.78700137 -26 2 C-26 1.34 -26 0.68 -26 0 C-16.98237861 -3.06982856 -9.17156328 -2.14449914 0 0 Z " fill="#09090A" transform="translate(55,144)"/>
<path d="M0 0 C0.99 0.66 1.98 1.32 3 2 C3 2.99 3 3.98 3 5 C9.27 4.67 15.54 4.34 22 4 C22.495 5.485 22.495 5.485 23 7 C19.13050773 7.89518105 15.46946297 8.19435332 11.5 8.25 C10.3965625 8.27578125 9.293125 8.3015625 8.15625 8.328125 C4.64624905 7.96322391 2.80849595 7.09619625 0 5 C-0.33 4.34 -0.66 3.68 -1 3 C-3.97 3.66 -6.94 4.32 -10 5 C-7.28127114 -0.43745772 -5.81659852 -0.35611828 0 0 Z " fill="#060606" transform="translate(113,88)"/>
<path d="M0 0 C2 3 2 3 1.625 6.1875 C1.41875 7.115625 1.2125 8.04375 1 9 C-1.1875 9.8125 -1.1875 9.8125 -4 10 C-6.8125 7.5625 -6.8125 7.5625 -9 5 C-4.5 0 -4.5 0 0 0 Z " fill="#060606" transform="translate(46,83)"/>
<path d="M0 0 C1.2684375 0.12375 1.2684375 0.12375 2.5625 0.25 C4.5625 3.25 4.5625 3.25 4.3125 5.75 C3.5625 8.25 3.5625 8.25 1.5625 11.25 C-1.81253669 10.0641763 -4.08472731 8.97426311 -6.4375 6.25 C-2.92875262 0.30038488 -2.92875262 0.30038488 0 0 Z " fill="#141414" transform="translate(178.4375,82.75)"/>
<path d="M0 0 C1.32 0.66 2.64 1.32 4 2 C3.01 2.66 2.02 3.32 1 4 C1.33 5.32 1.66 6.64 2 8 C2.66 8 3.32 8 4 8 C4 6.35 4 4.7 4 3 C4.33 3 4.66 3 5 3 C5 6.3 5 9.6 5 13 C0.597254 14.30892449 0.597254 14.30892449 -1.8125 13.0625 C-3.67018404 9.83599614 -3.59005249 6.63109226 -3 3 C-1.5 1 -1.5 1 0 0 Z " fill="#0B0A0B" transform="translate(95,140)"/>
<path d="M0 0 C-1.36370299 2.99220268 -2.94908083 5.29026529 -5.125 7.75 C-5.66382812 8.36359375 -6.20265625 8.9771875 -6.7578125 9.609375 C-7.37269531 10.29773438 -7.37269531 10.29773438 -8 11 C-8.66 10.34 -9.32 9.68 -10 9 C-12.50358872 9.48207356 -12.50358872 9.48207356 -15 11 C-16.37967524 14.53514293 -16.37967524 14.53514293 -17 18 C-20 17 -20 17 -22 14 C-20.97519531 13.32453125 -19.95039062 12.6490625 -18.89453125 11.953125 C-17.53377149 11.05220819 -16.17309902 10.15115954 -14.8125 9.25 C-14.13896484 8.8065625 -13.46542969 8.363125 -12.77148438 7.90625 C-9.78133708 5.92254252 -6.92468715 3.93876336 -4.13671875 1.671875 C-2 0 -2 0 0 0 Z " fill="#070708" transform="translate(96,58)"/>
<path d="M0 0 C1.32 0 2.64 0 4 0 C4 0.66 4 1.32 4 2 C4.928125 2.1546875 4.928125 2.1546875 5.875 2.3125 C8 3 8 3 10 6 C10 7.32 10 8.64 10 10 C8.68 9.67 7.36 9.34 6 9 C6 9.66 6 10.32 6 11 C5.34 11 4.68 11 4 11 C3.87625 10.071875 3.87625 10.071875 3.75 9.125 C3.18741541 6.81562433 3.18741541 6.81562433 0.9375 5.75 C0.298125 5.5025 -0.34125 5.255 -1 5 C-0.67 3.35 -0.34 1.7 0 0 Z " fill="#0F0F10" transform="translate(57,52)"/>
<path d="M0 0 C6.0546875 -0.1953125 6.0546875 -0.1953125 8 0 C10 2 10 2 10 4 C10.33 4.99 10.66 5.98 11 7 C9.6875 9.6875 9.6875 9.6875 8 12 C7.34 12 6.68 12 6 12 C5.67 12.66 5.34 13.32 5 14 C4.67 13.01 4.34 12.02 4 11 C5.4375 8.8125 5.4375 8.8125 7 7 C6.401875 6.87625 5.80375 6.7525 5.1875 6.625 C3 6 3 6 0 4 C0 2.68 0 1.36 0 0 Z M3 2 C4.37485532 3.54166642 4.37485532 3.54166642 6 5 C6.66 5 7.32 5 8 5 C8 4.34 8 3.68 8 3 C6.35 2.67 4.7 2.34 3 2 Z " fill="#050405" transform="translate(97,104)"/>
<path d="M0 0 C1.98 0 3.96 0 6 0 C7.2077558 3.62326739 6.54311128 4.64146369 5 8 C4.01 7.67 3.02 7.34 2 7 C1.67 8.65 1.34 10.3 1 12 C0.01 12.33 -0.98 12.66 -2 13 C-3.18414294 9.44757118 -2.69535532 8.30169438 -1.5625 4.8125 C-1.27503906 3.91144531 -0.98757812 3.01039063 -0.69140625 2.08203125 C-0.46324219 1.39496094 -0.23507813 0.70789063 0 0 Z " fill="#0F0E0F" transform="translate(104,142)"/>
<path d="M0 0 C0 3.57800367 -1.109077 5.83586605 -2.5390625 9.0625 C-2.69117188 9.701875 -2.84328125 10.34125 -3 11 C-2.01 12.485 -2.01 12.485 -1 14 C-1 14.99 -1 15.98 -1 17 C-2.65 16.67 -4.3 16.34 -6 16 C-6.99 12.7 -7.98 9.4 -9 6 C-8.071875 5.566875 -7.14375 5.13375 -6.1875 4.6875 C-3.52815927 3.27961373 -1.91894095 2.23876444 0 0 Z " fill="#181818" transform="translate(207,153)"/>
<path d="M0 0 C0.99 0.33 1.98 0.66 3 1 C3.66 0.67 4.32 0.34 5 0 C5 1.32 5 2.64 5 4 C5.99 4 6.98 4 8 4 C9.6875 6 9.6875 6 11 8 C8.69 7.67 6.38 7.34 4 7 C3.34 8.32 2.68 9.64 2 11 C2 10.34 2 9.68 2 9 C1.34 9 0.68 9 0 9 C-1.625 6.5 -1.625 6.5 -3 4 C-2.01 2.68 -1.02 1.36 0 0 Z " fill="#161516" transform="translate(136,69)"/>
<path d="M0 0 C2.51033417 1.1336993 2.96441202 2.36118938 3.9375 4.875 C2.6175 4.875 1.2975 4.875 -0.0625 4.875 C-0.7225 6.525 -1.3825 8.175 -2.0625 9.875 C-3.3825 9.215 -4.7025 8.555 -6.0625 7.875 C-5.75 5 -5.75 5 -5.0625 1.875 C-2.0625 -0.125 -2.0625 -0.125 0 0 Z " fill="#101011" transform="translate(161.0625,53.125)"/>
<path d="M0 0 C0 0.99 0 1.98 0 3 C2.31 3.33 4.62 3.66 7 4 C7 4.33 7 4.66 7 5 C4.77144426 5.0814222 2.54202345 5.13938079 0.3125 5.1875 C-1.54955078 5.23970703 -1.54955078 5.23970703 -3.44921875 5.29296875 C-7.19092269 4.9842473 -9.03782121 4.24853724 -12 2 C-12 1.67 -12 1.34 -12 1 C-10.37512529 0.83211627 -8.75009558 0.66573213 -7.125 0.5 C-6.22007813 0.4071875 -5.31515625 0.314375 -4.3828125 0.21875 C-2 0 -2 0 0 0 Z " fill="#060607" transform="translate(103,173)"/>
<path d="M0 0 C1.79133978 -0.05391993 3.58313899 -0.09275571 5.375 -0.125 C6.37273437 -0.14820313 7.37046875 -0.17140625 8.3984375 -0.1953125 C11 0 11 0 13 2 C13.99 2 14.98 2 16 2 C15.34 3.32 14.68 4.64 14 6 C13.236875 5.505 12.47375 5.01 11.6875 4.5 C9.07636249 2.75631692 9.07636249 2.75631692 6 3 C6 4.32 6 5.64 6 7 C1.125 3.375 1.125 3.375 0 0 Z " fill="#0F0F10" transform="translate(105,163)"/>
<path d="M0 0 C0.66 0.33 1.32 0.66 2 1 C1.67 1.66 1.34 2.32 1 3 C0.01 3.33 -0.98 3.66 -2 4 C-1.01 4.66 -0.02 5.32 1 6 C1 7.32 1 8.64 1 10 C-1.475 9.01 -1.475 9.01 -4 8 C-4.33 8.66 -4.66 9.32 -5 10 C-5.99 8.68 -6.98 7.36 -8 6 C-6.3813036 2.76260721 -3.15510457 1.57755229 0 0 Z " fill="#0B0B0B" transform="translate(156,130)"/>
<path d="M0 0 C2.64 0 5.28 0 8 0 C8.33 1.32 8.66 2.64 9 4 C10.32 3.67 11.64 3.34 13 3 C12.67 4.32 12.34 5.64 12 7 C10.02 7.33 8.04 7.66 6 8 C5 5 5 5 5 3 C4.360625 2.87625 3.72125 2.7525 3.0625 2.625 C2.381875 2.41875 1.70125 2.2125 1 2 C0.67 1.34 0.34 0.68 0 0 Z " fill="#060606" transform="translate(42,120)"/>
<path d="M0 0 C0.6875 1.625 0.6875 1.625 1 4 C-0.375 7.0625 -0.375 7.0625 -2 10 C-2.33 10.99 -2.66 11.98 -3 13 C-3.66 13 -4.32 13 -5 13 C-5.33 13.66 -5.66 14.32 -6 15 C-6.103125 14.21625 -6.20625 13.4325 -6.3125 12.625 C-6.77595022 9.66954819 -6.77595022 9.66954819 -10 8 C-7.69 8.33 -5.38 8.66 -3 9 C-3 7.35 -3 5.7 -3 4 C-3.66 4 -4.32 4 -5 4 C-5 3.34 -5 2.68 -5 2 C-3.35 1.34 -1.7 0.68 0 0 Z " fill="#070708" transform="translate(170,102)"/>
<path d="M0 0 C1.32 0.66 2.64 1.32 4 2 C3.67 2.99 3.34 3.98 3 5 C0.4375 6.1875 0.4375 6.1875 -2 7 C-2.33 6.67 -2.66 6.34 -3 6 C-3.66 6.66 -4.32 7.32 -5 8 C-6.0625 5.625 -6.0625 5.625 -7 3 C-6.67 2.34 -6.34 1.68 -6 1 C-4.68 1 -3.36 1 -2 1 C-1.67 1.66 -1.34 2.32 -1 3 C-0.67 2.01 -0.34 1.02 0 0 Z " fill="#141314" transform="translate(131,40)"/>
<path d="M0 0 C-0.33 0.66 -0.66 1.32 -1 2 C-3.43182076 2.3718197 -5.74060098 2.60620119 -8.1875 2.75 C-10.15783203 2.89695313 -10.15783203 2.89695313 -12.16796875 3.046875 C-15.92353824 3.00093531 -18.54201614 2.39825164 -22 1 C-22 0.67 -22 0.34 -22 0 C-14.76807212 -1.56366008 -7.21378059 -1.64364621 0 0 Z " fill="#0D0D0E" transform="translate(120,33)"/>
<path d="M0 0 C2.4375 0.625 2.4375 0.625 5 2 C5.8125 5.125 5.8125 5.125 6 8 C6.99 8 7.98 8 9 8 C9.33 7.34 9.66 6.68 10 6 C10.79953138 9.28696233 11.09658936 10.71023192 10 14 C9.01 13.67 8.02 13.34 7 13 C7 12.34 7 11.68 7 11 C6.360625 10.773125 5.72125 10.54625 5.0625 10.3125 C3 9 3 9 2.375 6.4375 C2.25125 5.633125 2.1275 4.82875 2 4 C1.34 3.67 0.68 3.34 0 3 C0 2.01 0 1.02 0 0 Z " fill="#1D1C1D" transform="translate(108,39)"/>
<path d="M0 0 C1.43472656 -0.02126953 1.43472656 -0.02126953 2.8984375 -0.04296875 C5.65510017 0.19004428 7.27447395 0.77829836 9.625 2.1875 C8.965 3.5075 8.305 4.8275 7.625 6.1875 C6.965 6.1875 6.305 6.1875 5.625 6.1875 C5.625 5.1975 5.625 4.2075 5.625 3.1875 C1.335 3.1875 -2.955 3.1875 -7.375 3.1875 C-7.375 2.5275 -7.375 1.8675 -7.375 1.1875 C-4.801671 -0.0991645 -2.87276962 0.01925449 0 0 Z " fill="#131314" transform="translate(59.375,85.8125)"/>
<path d="M0 0 C1.4800841 0.11362262 2.95910074 0.24122908 4.4375 0.375 C5.26121094 0.44460937 6.08492187 0.51421875 6.93359375 0.5859375 C7.95646484 0.79089844 7.95646484 0.79089844 9 1 C9.33 1.66 9.66 2.32 10 3 C12.3140622 3.73075648 14.64828869 4.40138258 17 5 C16.34 5.66 15.68 6.32 15 7 C12.3984375 6.7578125 12.3984375 6.7578125 9.375 6.125 C8.37210938 5.92132813 7.36921875 5.71765625 6.3359375 5.5078125 C5.56507813 5.34023437 4.79421875 5.17265625 4 5 C4 4.34 4 3.68 4 3 C2.68 2.34 1.36 1.68 0 1 C0 0.67 0 0.34 0 0 Z " fill="#070607" transform="translate(153,176)"/>
<path d="M0 0 C0.66 0.33 1.32 0.66 2 1 C1.21681311 4.91593446 -0.39179858 8.36406635 -2 12 C-4 10.625 -4 10.625 -6 9 C-6 8.34 -6 7.68 -6 7 C-5.34 7 -4.68 7 -4 7 C-3.71125 6.401875 -3.4225 5.80375 -3.125 5.1875 C-2 3 -2 3 0 0 Z " fill="#111112" transform="translate(62,127)"/>
<path d="M0 0 C0.99 0 1.98 0 3 0 C3.66 0.99 4.32 1.98 5 3 C8.465 2.505 8.465 2.505 12 2 C11.01 2.495 11.01 2.495 10 3 C10 4.65 10 6.3 10 8 C8.02 8 6.04 8 4 8 C3.34 6.02 2.68 4.04 2 2 C1.34 2 0.68 2 0 2 C0 1.34 0 0.68 0 0 Z " fill="#050405" transform="translate(37,111)"/>
<path d="M0 0 C1.65 0.33 3.3 0.66 5 1 C5 2.32 5 3.64 5 5 C5.99 5 6.98 5 8 5 C8 5.66 8 6.32 8 7 C7.01 7.33 6.02 7.66 5 8 C4.01 7.34 3.02 6.68 2 6 C1.34 6 0.68 6 0 6 C0 5.34 0 4.68 0 4 C-0.99 3.67 -1.98 3.34 -3 3 C-2.01 2.67 -1.02 2.34 0 2 C0 1.34 0 0.68 0 0 Z " fill="#1A191A" transform="translate(145,78)"/>
<path d="M0 0 C1.65 0.33 3.3 0.66 5 1 C5 3.31 5 5.62 5 8 C3.68 8 2.36 8 1 8 C-1 5 -1 5 -0.625 2.3125 C-0.41875 1.549375 -0.2125 0.78625 0 0 Z " fill="#1A1A1A" transform="translate(41,85)"/>
<path d="M0 0 C0.99 0.33 1.98 0.66 3 1 C2.67 1.99 2.34 2.98 2 4 C2.99 4 3.98 4 5 4 C5.33 4.99 5.66 5.98 6 7 C6.99 6.67 7.98 6.34 9 6 C9.33 6.66 9.66 7.32 10 8 C8.02 8.66 6.04 9.32 4 10 C3.5875 9.236875 3.175 8.47375 2.75 7.6875 C1.04124191 5.0633358 -0.41017753 3.69678024 -3 2 C-2.01 1.34 -1.02 0.68 0 0 Z " fill="#111112" transform="translate(65,48)"/>
<path d="M0 0 C0.99 0.33 1.98 0.66 3 1 C3.33 2.65 3.66 4.3 4 6 C2.865625 6.12375 1.73125 6.2475 0.5625 6.375 C-1.2009375 6.684375 -1.2009375 6.684375 -3 7 C-3.33 7.66 -3.66 8.32 -4 9 C-4.625 7.1875 -4.625 7.1875 -5 5 C-4.34 4.01 -3.68 3.02 -3 2 C-2.01 2 -1.02 2 0 2 C0 1.34 0 0.68 0 0 Z " fill="#050505" transform="translate(153,48)"/>
<path d="M0 0 C1.32 0.66 2.64 1.32 4 2 C3.01 2.66 2.02 3.32 1 4 C0.26393501 7.56769552 0.26393501 7.56769552 0 11 C-0.99 11 -1.98 11 -3 11 C-3.36923077 3.49230769 -3.36923077 3.49230769 -1.5 1 C-1.005 0.67 -0.51 0.34 0 0 Z " fill="#131213" transform="translate(95,140)"/>
<path d="M0 0 C-0.33 1.65 -0.66 3.3 -1 5 C-1.66 5 -2.32 5 -3 5 C-3 4.34 -3 3.68 -3 3 C-3.99 3.66 -4.98 4.32 -6 5 C-6.99 5.495 -6.99 5.495 -8 6 C-8.66 4.35 -9.32 2.7 -10 1 C-6.42181037 -1.33958553 -4.07775191 -0.9267618 0 0 Z " fill="#121212" transform="translate(150,140)"/>
<path d="M0 0 C2 1 2 1 5 3 C5.33 2.34 5.66 1.68 6 1 C6.33 2.65 6.66 4.3 7 6 C6.01 6.33 5.02 6.66 4 7 C4 7.66 4 8.32 4 9 C3.01 8.67 2.02 8.34 1 8 C1.33 7.01 1.66 6.02 2 5 C1.34 5 0.68 5 0 5 C0 4.34 0 3.68 0 3 C-0.66 2.67 -1.32 2.34 -2 2 C-1.34 2 -0.68 2 0 2 C0 1.34 0 0.68 0 0 Z " fill="#121213" transform="translate(107,104)"/>
<path d="M0 0 C0.66 0.99 1.32 1.98 2 3 C-1.94647618 3.98844951 -5.27392964 3.96191905 -9.3125 3.5625 C-10.38113281 3.46066406 -11.44976562 3.35882813 -12.55078125 3.25390625 C-13.35902344 3.17011719 -14.16726562 3.08632812 -15 3 C-14.67 2.34 -14.34 1.68 -14 1 C-10.83984375 0.5859375 -10.83984375 0.5859375 -6.9375 0.375 C-5.64714844 0.30023438 -4.35679687 0.22546875 -3.02734375 0.1484375 C-2.02832031 0.09945312 -1.02929688 0.05046875 0 0 Z " fill="#0D0C0D" transform="translate(134,92)"/>
<path d="M0 0 C2.27057377 -0.05398987 4.54151288 -0.09278742 6.8125 -0.125 C8.07707031 -0.14820312 9.34164062 -0.17140625 10.64453125 -0.1953125 C14 0 14 0 17 2 C16 3 16 3 12.62109375 3.09765625 C11.22652923 3.09098369 9.83198257 3.07902532 8.4375 3.0625 C7.72658203 3.05798828 7.01566406 3.05347656 6.28320312 3.04882812 C4.52209987 3.03700864 2.76103964 3.01907263 1 3 C0.67 2.01 0.34 1.02 0 0 Z " fill="#121213" transform="translate(51,82)"/>
<path d="M0 0 C3.465 1.98 3.465 1.98 7 4 C7 4.99 7 5.98 7 7 C4.69 7 2.38 7 0 7 C-0.66 5.68 -1.32 4.36 -2 3 C-1.34 3 -0.68 3 0 3 C0 2.01 0 1.02 0 0 Z M1 2 C2 4 2 4 2 4 Z " fill="#070707" transform="translate(79,143)"/>
<path d="M0 0 C0.66 0.33 1.32 0.66 2 1 C3.32860925 1.35169068 4.66158328 1.68770276 6 2 C5.67 3.65 5.34 5.3 5 7 C4.34 6.67 3.68 6.34 3 6 C2.01 6.165 1.02 6.33 0 6.5 C-3 7 -3 7 -5 6 C-4.67 5.34 -4.34 4.68 -4 4 C-2.02 4.495 -2.02 4.495 0 5 C0 3.35 0 1.7 0 0 Z " fill="#181718" transform="translate(47,114)"/>
<path d="M0 0 C0.33 0 0.66 0 1 0 C1.19477739 1.62414378 1.38059458 3.24936423 1.5625 4.875 C1.66691406 5.77992188 1.77132812 6.68484375 1.87890625 7.6171875 C2 10 2 10 1 12 C-2.3 11.34 -5.6 10.68 -9 10 C-9 9.67 -9 9.34 -9 9 C-6.69 9 -4.38 9 -2 9 C-1.34 6.03 -0.68 3.06 0 0 Z " fill="#151515" transform="translate(193,175)"/>
<path d="M0 0 C1.65 0.33 3.3 0.66 5 1 C5.33 1.99 5.66 2.98 6 4 C5.34 4 4.68 4 4 4 C4 4.66 4 5.32 4 6 C2.46875 7.5078125 2.46875 7.5078125 0.5 9.125 C-0.1496875 9.66382813 -0.799375 10.20265625 -1.46875 10.7578125 C-1.9740625 11.16773438 -2.479375 11.57765625 -3 12 C-3 8.41087588 -2.33563446 7.89142971 0 5.3125 C0.556875 4.68988281 1.11375 4.06726563 1.6875 3.42578125 C2.120625 2.95527344 2.55375 2.48476562 3 2 C2.01 1.67 1.02 1.34 0 1 C0 0.67 0 0.34 0 0 Z " fill="#040304" transform="translate(209,147)"/>
<path d="M0 0 C0.556875 0.474375 1.11375 0.94875 1.6875 1.4375 C4.18346074 3.12395996 6.0446237 3.58953107 9 4 C7 6 7 6 3.5 6.1875 C0 6 0 6 -2 5 C-1.34 3.35 -0.68 1.7 0 0 Z " fill="#121112" transform="translate(150,174)"/>
<path d="M0 0 C0.7425 0.185625 1.485 0.37125 2.25 0.5625 C4.94990963 0.99203108 6.44631077 0.85122974 9 0 C9.33 1.65 9.66 3.3 10 5 C7.36 5 4.72 5 2 5 C1.34 3.35 0.68 1.7 0 0 Z " fill="#040404" transform="translate(49,170)"/>
<path d="M0 0 C4.455 0.99 4.455 0.99 9 2 C9 2.66 9 3.32 9 4 C4.71 4 0.42 4 -4 4 C-2.68 3.67 -1.36 3.34 0 3 C0 2.01 0 1.02 0 0 Z " fill="#121212" transform="translate(173,138)"/>
<path d="M0 0 C2.31 0.66 4.62 1.32 7 2 C6.67 3.32 6.34 4.64 6 6 C5.01 5.67 4.02 5.34 3 5 C3 4.34 3 3.68 3 3 C0.69 3.33 -1.62 3.66 -4 4 C-2.68 2.68 -1.36 1.36 0 0 Z " fill="#0E0D0E" transform="translate(178,102)"/>
<path d="M0 0 C0 0.66 0 1.32 0 2 C-7.61538462 3.69230769 -7.61538462 3.69230769 -11 2 C-10 0 -10 0 -8.3125 -0.6875 C-5.37519398 -1.08443325 -2.88840266 -0.59080963 0 0 Z M-14 2 C-13.01 2.33 -12.02 2.66 -11 3 C-11.99 3 -12.98 3 -14 3 C-14 2.67 -14 2.34 -14 2 Z " fill="#030303" transform="translate(33,146)"/>
<path d="M0 0 C-0.99 0 -1.98 0 -3 0 C-2.814375 1.11375 -2.62875 2.2275 -2.4375 3.375 C-2 7 -2 7 -3 9 C-3.99 8.34 -4.98 7.68 -6 7 C-5.814375 6.21625 -5.62875 5.4325 -5.4375 4.625 C-4.74037734 2.02910225 -4.74037734 2.02910225 -6 0 C-3.50907189 -1.24546405 -2.58919267 -0.7767578 0 0 Z " fill="#0F0E0F" transform="translate(137,141)"/>
<path d="M0 0 C1.11988052 3.35964157 0.71980913 5.58090665 0 9 C0.33 9.66 0.66 10.32 1 11 C-1.97 10.505 -1.97 10.505 -5 10 C-4.54625 9.278125 -4.0925 8.55625 -3.625 7.8125 C-2.14505642 5.25105919 -1.02782461 2.76722011 0 0 Z " fill="#040404" transform="translate(171,108)"/>
<path d="M0 0 C5.445 1.485 5.445 1.485 11 3 C11.33 2.01 11.66 1.02 12 0 C12.33 0 12.66 0 13 0 C13 1.65 13 3.3 13 5 C11.39536551 4.68991116 9.79130769 4.37683713 8.1875 4.0625 C7.29417969 3.88847656 6.40085938 3.71445313 5.48046875 3.53515625 C3 3 3 3 0 2 C0 1.34 0 0.68 0 0 Z " fill="#050405" transform="translate(183,184)"/>
<path d="M0 0 C-0.33 0.66 -0.66 1.32 -1 2 C-0.34 2.33 0.32 2.66 1 3 C1 3.66 1 4.32 1 5 C-0.4800841 4.88637738 -1.95910074 4.75877092 -3.4375 4.625 C-4.26121094 4.55539063 -5.08492187 4.48578125 -5.93359375 4.4140625 C-6.61550781 4.27742187 -7.29742187 4.14078125 -8 4 C-8.33 3.34 -8.66 2.68 -9 2 C-5.86501708 0.14223235 -3.62528568 -0.20140476 0 0 Z " fill="#060607" transform="translate(163,149)"/>
<path d="M0 0 C0 3.58912412 -0.66436554 4.10857029 -3 6.6875 C-3.556875 7.31011719 -4.11375 7.93273437 -4.6875 8.57421875 C-5.120625 9.04472656 -5.55375 9.51523438 -6 10 C-6.64453125 8.16796875 -6.64453125 8.16796875 -7 6 C-4.8386373 3.48814606 -2.98037561 1.49018781 0 0 Z " fill="#040404" transform="translate(181,124)"/>
<path d="M0 0 C0.33 0.99 0.66 1.98 1 3 C-0.28965176 4.37562854 -1.62689293 5.70766393 -3 7 C-3.66 7 -4.32 7 -5 7 C-5 6.34 -5 5.68 -5 5 C-4.34 4.67 -3.68 4.34 -3 4 C-5.475 3.01 -5.475 3.01 -8 2 C-8 1.67 -8 1.34 -8 1 C-5.23735711 0.40267181 -2.83967231 0 0 0 Z " fill="#151415" transform="translate(48,101)"/>
<path d="M0 0 C0.33 0.99 0.66 1.98 1 3 C0.34 3.66 -0.32 4.32 -1 5 C-1 5.66 -1 6.32 -1 7 C-2.32 7.33 -3.64 7.66 -5 8 C-5.33 7.01 -5.66 6.02 -6 5 C-4.06745228 2.9754262 -2.36841312 1.57894208 0 0 Z " fill="#1C1C1C" transform="translate(86,66)"/>
<path d="M0 0 C3.63 0 7.26 0 11 0 C10.67 0.99 10.34 1.98 10 3 C6.7 3 3.4 3 0 3 C0 2.01 0 1.02 0 0 Z " fill="#0D0C0D" transform="translate(111,137)"/>
<path d="M0 0 C1.5625 1.1875 1.5625 1.1875 3 3 C2.6875 5.6875 2.6875 5.6875 2 8 C0.35 8 -1.3 8 -3 8 C-2.34 7.67 -1.68 7.34 -1 7 C-1.20625 6.401875 -1.4125 5.80375 -1.625 5.1875 C-2 3 -2 3 0 0 Z " fill="#040404" transform="translate(32,165)"/>
<path d="M0 0 C1.32 0.33 2.64 0.66 4 1 C3.34 1 2.68 1 2 1 C2 1.66 2 2.32 2 3 C3.32 3.33 4.64 3.66 6 4 C3.75 5.125 3.75 5.125 1 6 C-1.3125 5.125 -1.3125 5.125 -3 4 C-2.01 3.67 -1.02 3.34 0 3 C0 2.01 0 1.02 0 0 Z " fill="#151416" transform="translate(81,90)"/>
<path d="M0 0 C2.97 0.495 2.97 0.495 6 1 C5.2884375 2.175625 5.2884375 2.175625 4.5625 3.375 C3.66101977 4.88948678 2.78820515 6.4235897 2 8 C0 6 0 6 -0.125 2.875 C-0.08375 1.92625 -0.0425 0.9775 0 0 Z " fill="#050505" transform="translate(133,84)"/>
<path d="M0 0 C2.86453858 3.41016497 4.34703566 6.90694544 6 11 C5.01 11.495 5.01 11.495 4 12 C1.77174356 9.77174356 1.30760631 8.34238372 0.375 5.375 C0.11460937 4.55773437 -0.14578125 3.74046875 -0.4140625 2.8984375 C-0.60742188 2.27195313 -0.80078125 1.64546875 -1 1 C-0.67 0.67 -0.34 0.34 0 0 Z " fill="#050506" transform="translate(199,158)"/>
<path d="M0 0 C1.65 0.33 3.3 0.66 5 1 C5 1.66 5 2.32 5 3 C3.54536519 3.38909985 2.08608793 3.76088029 0.625 4.125 C-0.18710938 4.33382812 -0.99921875 4.54265625 -1.8359375 4.7578125 C-2.55007812 4.83773437 -3.26421875 4.91765625 -4 5 C-4.66 4.34 -5.32 3.68 -6 3 C-5 2 -5 2 -2.4375 1.9375 C-1.2309375 1.9684375 -1.2309375 1.9684375 0 2 C0 1.34 0 0.68 0 0 Z " fill="#050505" transform="translate(75,150)"/>
<path d="M0 0 C-0.33 0.99 -0.66 1.98 -1 3 C-1.66 3 -2.32 3 -3 3 C-3 3.66 -3 4.32 -3 5 C-4.32 5.33 -5.64 5.66 -7 6 C-7.33 4.68 -7.66 3.36 -8 2 C-5.09399739 0.74335022 -3.20395416 0 0 0 Z " fill="#060506" transform="translate(161,143)"/>
<path d="M0 0 C2.0625 0.4375 2.0625 0.4375 4 1 C3.67 1.66 3.34 2.32 3 3 C1.68 3 0.36 3 -1 3 C-0.67 4.98 -0.34 6.96 0 9 C-1.32 8.01 -2.64 7.02 -4 6 C-1.125 1.125 -1.125 1.125 0 0 Z " fill="#060506" transform="translate(176,83)"/>
<path d="M0 0 C0.66 0 1.32 0 2 0 C2.33 0.99 2.66 1.98 3 3 C2.67 3.33 2.34 3.66 2 4 C2.66 4.33 3.32 4.66 4 5 C4 5.66 4 6.32 4 7 C2.02 7 0.04 7 -2 7 C-1.34 4.69 -0.68 2.38 0 0 Z " fill="#040405" transform="translate(69,85)"/>
<path d="M0 0 C0.33 0.99 0.66 1.98 1 3 C-1.33333333 7.66666667 -1.33333333 7.66666667 -4 9 C-4.625 7.125 -4.625 7.125 -5 5 C-4.34 4.34 -3.68 3.68 -3 3 C-3 2.34 -3 1.68 -3 1 C-2.01 0.67 -1.02 0.34 0 0 Z " fill="#131313" transform="translate(71,135)"/>
<path d="M0 0 C-0.639375 0.28875 -1.27875 0.5775 -1.9375 0.875 C-4.15206079 1.82823451 -4.15206079 1.82823451 -5 4 C-5.66 4 -6.32 4 -7 4 C-7 4.99 -7 5.98 -7 7 C-7.99 7 -8.98 7 -10 7 C-9.33333333 5 -8.66666667 3 -8 1 C-5.07175348 0.02391783 -3.04386724 -0.08226668 0 0 Z " fill="#131313" transform="translate(156,124)"/>
<path d="M0 0 C0.66 1.32 1.32 2.64 2 4 C0.68 5.32 -0.64 6.64 -2 8 C-2.66 6.02 -3.32 4.04 -4 2 C-2.68 1.34 -1.36 0.68 0 0 Z " fill="#070607" transform="translate(75,76)"/>
<path d="M0 0 C3.465 1.485 3.465 1.485 7 3 C6.01 3.66 5.02 4.32 4 5 C0.8125 4.125 0.8125 4.125 -2 3 C-1.34 2.01 -0.68 1.02 0 0 Z " fill="#0D0D0E" transform="translate(187,156)"/>
<path d="M0 0 C3.63 0.33 7.26 0.66 11 1 C8.08235 2.9451 6.37462715 3.45276317 3 4 C2.01 2.68 1.02 1.36 0 0 Z " fill="#191919" transform="translate(44,143)"/>
<path d="M0 0 C1.32 0.66 2.64 1.32 4 2 C1.66785852 3.20628008 -0.49642139 4.1654738 -3 5 C-3.33 5.66 -3.66 6.32 -4 7 C-4.66 7 -5.32 7 -6 7 C-4.60667426 3.63279613 -3.0210714 2.0140476 0 0 Z " fill="#050405" transform="translate(61,125)"/>
<path d="M0 0 C0.33 0.99 0.66 1.98 1 3 C-2 3 -2 3 -5 2 C-5 2.66 -5 3.32 -5 4 C-5.99 3.67 -6.98 3.34 -8 3 C-7.34 2.67 -6.68 2.34 -6 2 C-6 1.34 -6 0.68 -6 0 C-3 -1 -3 -1 0 0 Z " fill="#040405" transform="translate(170,59)"/>
<path d="M0 0 C0.86625 0.556875 0.86625 0.556875 1.75 1.125 C-1.01223278 3.88723278 -3.45706617 3.70356291 -7.25 4.125 C-6.25 1.125 -6.25 1.125 -4.4375 -0.1875 C-2.25 -0.875 -2.25 -0.875 0 0 Z " fill="#0F0E0F" transform="translate(84.25,35.875)"/>
<path d="M0 0 C1.98 0.66 3.96 1.32 6 2 C3.08235 3.9451 1.37462715 4.45276317 -2 5 C-1.34 3.35 -0.68 1.7 0 0 Z " fill="#141414" transform="translate(90,175)"/>
<path d="M0 0 C0.99 0 1.98 0 3 0 C3 0.66 3 1.32 3 2 C2.34 2 1.68 2 1 2 C1.33 2.99 1.66 3.98 2 5 C0.68 5 -0.64 5 -2 5 C-1.125 1.125 -1.125 1.125 0 0 Z " fill="#100F10" transform="translate(82,139)"/>
<path d="M0 0 C0.66 0 1.32 0 2 0 C2 0.66 2 1.32 2 2 C2.66 2 3.32 2 4 2 C4.66 1.34 5.32 0.68 6 0 C8 2 8 2 8 5 C6.35 5 4.7 5 3 5 C3 4.34 3 3.68 3 3 C2.01 2.67 1.02 2.34 0 2 C0 1.34 0 0.68 0 0 Z " fill="#040405" transform="translate(144,73)"/>
<path d="M0 0 C2.97 0.495 2.97 0.495 6 1 C6 1.99 6 2.98 6 4 C6.33 4.66 6.66 5.32 7 6 C4.03 5.505 4.03 5.505 1 5 C0.67 3.35 0.34 1.7 0 0 Z " fill="#0F0F0F" transform="translate(52,59)"/>
<path d="M0 0 C0.33 0.66 0.66 1.32 1 2 C3.02463255 2.65213292 3.02463255 2.65213292 5 3 C4.67 3.66 4.34 4.32 4 5 C1.03 4.505 1.03 4.505 -2 4 C-2.33 3.01 -2.66 2.02 -3 1 C-2.01 0.67 -1.02 0.34 0 0 Z " fill="#141414" transform="translate(179,181)"/>
<path d="M0 0 C1.65 0 3.3 0 5 0 C4.67 0.99 4.34 1.98 4 3 C4.66 3.66 5.32 4.32 6 5 C4.02 5 2.04 5 0 5 C0 3.35 0 1.7 0 0 Z " fill="#121212" transform="translate(99,157)"/>
<path d="M0 0 C0.66 0 1.32 0 2 0 C2 1.32 2 2.64 2 4 C2.66 4.33 3.32 4.66 4 5 C3.01 5.99 2.02 6.98 1 8 C-0.42944945 5.64561267 -1.08661261 4.51967567 -0.625 1.75 C-0.41875 1.1725 -0.2125 0.595 0 0 Z " fill="#141314" transform="translate(124,141)"/>
<path d="M0 0 C2 0 2 0 4.0625 1.75 C5.97162174 3.9670446 6.59411886 5.158832 7 8 C6.01 8 5.02 8 4 8 C2.66666667 5.33333333 1.33333333 2.66666667 0 0 Z " fill="#100F10" transform="translate(158,126)"/>
<path d="M0 0 C1.258125 -0.04125 2.51625 -0.0825 3.8125 -0.125 C4.52019531 -0.14820312 5.22789062 -0.17140625 5.95703125 -0.1953125 C8 0 8 0 11 2 C7.7 2.33 4.4 2.66 1 3 C0.67 2.01 0.34 1.02 0 0 Z " fill="#1A191A" transform="translate(152,110)"/>
<path d="M0 0 C2.97 0.495 2.97 0.495 6 1 C5.34 1.66 4.68 2.32 4 3 C3.01 3 2.02 3 1 3 C1 3.66 1 4.32 1 5 C0.01 4.67 -0.98 4.34 -2 4 C-1.34 2.68 -0.68 1.36 0 0 Z " fill="#151415" transform="translate(42,109)"/>
<path d="M0 0 C0.66 0 1.32 0 2 0 C2.33 1.32 2.66 2.64 3 4 C3.66 4 4.32 4 5 4 C5.33 3.34 5.66 2.68 6 2 C5.67 3.32 5.34 4.64 5 6 C2.5625 5.625 2.5625 5.625 0 5 C-0.33 4.34 -0.66 3.68 -1 3 C-0.34 3 0.32 3 1 3 C0.67 2.01 0.34 1.02 0 0 Z " fill="#050405" transform="translate(58,59)"/>
<path d="M0 0 C2.475 0.495 2.475 0.495 5 1 C5 2.65 5 4.3 5 6 C3.68 5.67 2.36 5.34 1 5 C0.67 3.35 0.34 1.7 0 0 Z " fill="#181718" transform="translate(72,125)"/>
<path d="M0 0 C0.99 0.99 1.98 1.98 3 3 C2.34 3 1.68 3 1 3 C1 4.98 1 6.96 1 9 C0.67 8.34 0.34 7.68 0 7 C-0.99 6.67 -1.98 6.34 -3 6 C-2.34 5.67 -1.68 5.34 -1 5 C-1.33 3.68 -1.66 2.36 -2 1 C-1.34 0.67 -0.68 0.34 0 0 Z " fill="#040404" transform="translate(75,104)"/>
<path d="M0 0 C-2.6855594 2.6855594 -5.37621328 3.06049974 -9 4 C-9.66 3.34 -10.32 2.68 -11 2 C-7.36576791 -0.32590854 -4.22911669 -0.16265833 0 0 Z " fill="#0C0B0C" transform="translate(61,79)"/>
<path d="M0 0 C1.32 0.66 2.64 1.32 4 2 C3.67 3.65 3.34 5.3 3 7 C1.68 6.34 0.36 5.68 -1 5 C-0.34 4.67 0.32 4.34 1 4 C0.67 2.68 0.34 1.36 0 0 Z " fill="#161516" transform="translate(92,43)"/>
<path d="M0 0 C0.99 0 1.98 0 3 0 C2.67 1.32 2.34 2.64 2 4 C0.68 4 -0.64 4 -2 4 C-2.33 3.34 -2.66 2.68 -3 2 C-2.01 2 -1.02 2 0 2 C0 1.34 0 0.68 0 0 Z " fill="#040405" transform="translate(157,165)"/>
<path d="M0 0 C1.32 0.33 2.64 0.66 4 1 C3.34 1 2.68 1 2 1 C2 1.66 2 2.32 2 3 C2.66 3.33 3.32 3.66 4 4 C3.02149805 5.02104551 2.02019573 6.0206121 1 7 C0.67 7 0.34 7 0 7 C0 4.69 0 2.38 0 0 Z " fill="#161616" transform="translate(149,165)"/>
<path d="M0 0 C2.31 0.66 4.62 1.32 7 2 C6.01 2.33 5.02 2.66 4 3 C3.67 3.99 3.34 4.98 3 6 C2.67 5.34 2.34 4.68 2 4 C1.01 3.67 0.02 3.34 -1 3 C-0.67 2.01 -0.34 1.02 0 0 Z " fill="#121212" transform="translate(120,68)"/>
<path d="M0 0 C1.98 0.66 3.96 1.32 6 2 C5.67 3.32 5.34 4.64 5 6 C3.2925002 4.71937515 1.62626404 3.38232443 0 2 C0 1.34 0 0.68 0 0 Z " fill="#060506" transform="translate(89,38)"/>
<path d="M0 0 C2.31 0.33 4.62 0.66 7 1 C5.68 1.33 4.36 1.66 3 2 C3.33 2.99 3.66 3.98 4 5 C2.68 4.34 1.36 3.68 0 3 C0 2.01 0 1.02 0 0 Z " fill="#131213" transform="translate(86,40)"/>
<path d="M0 0 C0 0.66 0 1.32 0 2 C-3.76624671 3.25541557 -5.37188934 2.37061958 -9 1 C-9 0.67 -9 0.34 -9 0 C-3.375 -1.125 -3.375 -1.125 0 0 Z " fill="#191819" transform="translate(107,33)"/>
<path d="M0 0 C0.99 0 1.98 0 3 0 C3 0.66 3 1.32 3 2 C3.99 2.33 4.98 2.66 6 3 C5.01 3.495 5.01 3.495 4 4 C3.67 4.66 3.34 5.32 3 6 C0 2.25 0 2.25 0 0 Z " fill="#131213" transform="translate(148,134)"/>
<path d="M0 0 C0.33 0.99 0.66 1.98 1 3 C-2 5 -2 5 -5 5 C-4.67 3.68 -4.34 2.36 -4 1 C-2.68 0.67 -1.36 0.34 0 0 Z " fill="#131213" transform="translate(149,99)"/>
<path d="M0 0 C1.32 0.66 2.64 1.32 4 2 C2.68 3.32 1.36 4.64 0 6 C-1.125 2.25 -1.125 2.25 0 0 Z " fill="#070707" transform="translate(85,69)"/>
<path d="M0 0 C0.99 0 1.98 0 3 0 C5 3 5 3 4.625 5.1875 C4.41875 5.785625 4.2125 6.38375 4 7 C1.49962266 4.82575883 0.56371414 3.26954202 0 0 Z " fill="#0D0D0D" transform="translate(177,62)"/>
<path d="M0 0 C-1.0975223 2.99324263 -1.67682892 3.84610901 -4.625 5.25 C-5.40875 5.4975 -6.1925 5.745 -7 6 C-5.81636731 2.44910192 -3.99368042 0 0 0 Z " fill="#0E0D0E" transform="translate(96,58)"/>
<path d="M0 0 C1.9451 2.91765 2.45276317 4.62537285 3 8 C2.01 7.67 1.02 7.34 0 7 C-1.125 2.25 -1.125 2.25 0 0 Z " fill="#161516" transform="translate(89,46)"/>
<path d="M0 0 C2.475 0.99 2.475 0.99 5 2 C5 3.98 5 5.96 5 8 C3 7 3 7 2 4 C1.34 3.67 0.68 3.34 0 3 C0 2.01 0 1.02 0 0 Z " fill="#161516" transform="translate(108,39)"/>
<path d="M0 0 C0.33 0.66 0.66 1.32 1 2 C0.34 1.67 -0.32 1.34 -1 1 C-0.67 0.67 -0.34 0.34 0 0 Z " fill="#404140" transform="translate(178,151)"/>
<path d="M0 0 C0.33 0.66 0.66 1.32 1 2 C0.34 1.67 -0.32 1.34 -1 1 C-0.67 0.67 -0.34 0.34 0 0 Z " fill="#404140" transform="translate(75,69)"/>
<path d="M0 0 C2 1 2 1 2 1 Z " fill="#000100" transform="translate(66,173)"/>
<path d="M0 0 C2 1 2 1 2 1 Z " fill="#303130" transform="translate(174,168)"/>
<path d="" fill="#303130" transform="translate(0,0)"/>
<path d="M0 0 C2 1 2 1 2 1 Z " fill="#333333" transform="translate(80,163)"/>
<path d="" fill="#616161" transform="translate(0,0)"/>
<path d="" fill="#020303" transform="translate(0,0)"/>
<path d="" fill="#303130" transform="translate(0,0)"/>
<path d="M0 0 C2 1 2 1 2 1 Z " fill="#040406" transform="translate(49,139)"/>
<path d="M0 0 C2 1 2 1 2 1 Z " fill="#303130" transform="translate(179,120)"/>
<path d="M0 0 C2 1 2 1 2 1 Z " fill="#000000" transform="translate(161,77)"/>
<path d="" fill="#303130" transform="translate(0,0)"/>
<path d="" fill="#303130" transform="translate(0,0)"/>
<path d="M0 0 C2 1 2 1 2 1 Z " fill="#010102" transform="translate(145,62)"/>
<path d="M0 0 C2 1 2 1 2 1 Z " fill="#313132" transform="translate(62,42)"/>
<path d="" fill="#616161" transform="translate(0,0)"/>
<path d="" fill="#616161" transform="translate(0,0)"/>
<path d="" fill="#616161" transform="translate(0,0)"/>
<path d="" fill="#616161" transform="translate(0,0)"/>
<path d="" fill="#616161" transform="translate(0,0)"/>
<path d="" fill="#616161" transform="translate(0,0)"/>
<path d="" fill="#616161" transform="translate(0,0)"/>
<path d="" fill="#616161" transform="translate(0,0)"/>
<path d="" fill="#616161" transform="translate(0,0)"/>
<path d="" fill="#616161" transform="translate(0,0)"/>
<path d="" fill="#000100" transform="translate(0,0)"/>
<path d="" fill="#000100" transform="translate(0,0)"/>
<path d="" fill="#000100" transform="translate(0,0)"/>
<path d="" fill="#616161" transform="translate(0,0)"/>
<path d="" fill="#050505" transform="translate(0,0)"/>
<path d="" fill="#616161" transform="translate(0,0)"/>
<path d="" fill="#000000" transform="translate(0,0)"/>
<path d="" fill="#000100" transform="translate(0,0)"/>
<path d="" fill="#616161" transform="translate(0,0)"/>
<path d="" fill="#000000" transform="translate(0,0)"/>
<path d="" fill="#616161" transform="translate(0,0)"/>
<path d="" fill="#040405" transform="translate(0,0)"/>
<path d="" fill="#000100" transform="translate(0,0)"/>
<path d="" fill="#616161" transform="translate(0,0)"/>
<path d="" fill="#000100" transform="translate(0,0)"/>
<path d="" fill="#000000" transform="translate(0,0)"/>
<path d="" fill="#616161" transform="translate(0,0)"/>
<path d="" fill="#000100" transform="translate(0,0)"/>
<path d="" fill="#616161" transform="translate(0,0)"/>
<path d="" fill="#040405" transform="translate(0,0)"/>
<path d="" fill="#616161" transform="translate(0,0)"/>
<path d="" fill="#616161" transform="translate(0,0)"/>
<path d="" fill="#616161" transform="translate(0,0)"/>
<path d="" fill="#050506" transform="translate(0,0)"/>
<path d="" fill="#050505" transform="translate(0,0)"/>
<path d="" fill="#020103" transform="translate(0,0)"/>
<path d="" fill="#000100" transform="translate(0,0)"/>
<path d="" fill="#000000" transform="translate(0,0)"/>
<path d="" fill="#030304" transform="translate(0,0)"/>
<path d="" fill="#000000" transform="translate(0,0)"/>
<path d="" fill="#000100" transform="translate(0,0)"/>
<path d="" fill="#000100" transform="translate(0,0)"/>
<path d="" fill="#040407" transform="translate(0,0)"/>
<path d="" fill="#616161" transform="translate(0,0)"/>
<path d="" fill="#000100" transform="translate(0,0)"/>
<path d="" fill="#616161" transform="translate(0,0)"/>
<path d="" fill="#000000" transform="translate(0,0)"/>
<path d="" fill="#000100" transform="translate(0,0)"/>
<path d="" fill="#040407" transform="translate(0,0)"/>
<path d="" fill="#616161" transform="translate(0,0)"/>
<path d="" fill="#616161" transform="translate(0,0)"/>
<path d="" fill="#616161" transform="translate(0,0)"/>
<path d="" fill="#616161" transform="translate(0,0)"/>
<path d="" fill="#616161" transform="translate(0,0)"/>
<path d="" fill="#000100" transform="translate(0,0)"/>
<path d="" fill="#030304" transform="translate(0,0)"/>
<path d="" fill="#616161" transform="translate(0,0)"/>
<path d="" fill="#000100" transform="translate(0,0)"/>
<path d="" fill="#000100" transform="translate(0,0)"/>
<path d="" fill="#000100" transform="translate(0,0)"/>
<path d="" fill="#616161" transform="translate(0,0)"/>
<path d="" fill="#616161" transform="translate(0,0)"/>
<path d="" fill="#000100" transform="translate(0,0)"/>
<path d="" fill="#616161" transform="translate(0,0)"/>
<path d="" fill="#616161" transform="translate(0,0)"/>
<path d="" fill="#616161" transform="translate(0,0)"/>
<path d="" fill="#050505" transform="translate(0,0)"/>
<path d="" fill="#000100" transform="translate(0,0)"/>
<path d="" fill="#000100" transform="translate(0,0)"/>
<path d="" fill="#000100" transform="translate(0,0)"/>
<path d="" fill="#050405" transform="translate(0,0)"/>
<path d="" fill="#000100" transform="translate(0,0)"/>
<path d="" fill="#000000" transform="translate(0,0)"/>
<path d="" fill="#000100" transform="translate(0,0)"/>
<path d="" fill="#616161" transform="translate(0,0)"/>
<path d="" fill="#050505" transform="translate(0,0)"/>
<path d="" fill="#050505" transform="translate(0,0)"/>
<path d="" fill="#040405" transform="translate(0,0)"/>
<path d="" fill="#050505" transform="translate(0,0)"/>
<path d="" fill="#050505" transform="translate(0,0)"/>
<path d="" fill="#000100" transform="translate(0,0)"/>
<path d="" fill="#000000" transform="translate(0,0)"/>
<path d="" fill="#000100" transform="translate(0,0)"/>
<path d="" fill="#616161" transform="translate(0,0)"/>
<path d="" fill="#616161" transform="translate(0,0)"/>
<path d="" fill="#040407" transform="translate(0,0)"/>
<path d="" fill="#040407" transform="translate(0,0)"/>
<path d="" fill="#616161" transform="translate(0,0)"/>
<path d="" fill="#616161" transform="translate(0,0)"/>
<path d="" fill="#040405" transform="translate(0,0)"/>
<path d="" fill="#616161" transform="translate(0,0)"/>
<path d="" fill="#000100" transform="translate(0,0)"/>
<path d="" fill="#000100" transform="translate(0,0)"/>
<path d="" fill="#000100" transform="translate(0,0)"/>
<path d="" fill="#000100" transform="translate(0,0)"/>
<path d="" fill="#616161" transform="translate(0,0)"/>
<path d="" fill="#050505" transform="translate(0,0)"/>
<path d="" fill="#050505" transform="translate(0,0)"/>
<path d="" fill="#030304" transform="translate(0,0)"/>
<path d="" fill="#000100" transform="translate(0,0)"/>
<path d="" fill="#616161" transform="translate(0,0)"/>
<path d="" fill="#616161" transform="translate(0,0)"/>
<path d="" fill="#000100" transform="translate(0,0)"/>
<path d="" fill="#000000" transform="translate(0,0)"/>
<path d="" fill="#000100" transform="translate(0,0)"/>
<path d="" fill="#616161" transform="translate(0,0)"/>
<path d="" fill="#040405" transform="translate(0,0)"/>
<path d="" fill="#050505" transform="translate(0,0)"/>
<path d="" fill="#060606" transform="translate(0,0)"/>
<path d="" fill="#040407" transform="translate(0,0)"/>
<path d="" fill="#000100" transform="translate(0,0)"/>
<path d="" fill="#000100" transform="translate(0,0)"/>
<path d="" fill="#000100" transform="translate(0,0)"/>
<path d="" fill="#616161" transform="translate(0,0)"/>
<path d="" fill="#616161" transform="translate(0,0)"/>
<path d="" fill="#000100" transform="translate(0,0)"/>
<path d="" fill="#616161" transform="translate(0,0)"/>
<path d="" fill="#616161" transform="translate(0,0)"/>
<path d="" fill="#000100" transform="translate(0,0)"/>
<path d="" fill="#000100" transform="translate(0,0)"/>
<path d="" fill="#030304" transform="translate(0,0)"/>
<path d="" fill="#616161" transform="translate(0,0)"/>
<path d="" fill="#616161" transform="translate(0,0)"/>
<path d="" fill="#000000" transform="translate(0,0)"/>
<path d="" fill="#616161" transform="translate(0,0)"/>
<path d="" fill="#000100" transform="translate(0,0)"/>
<path d="" fill="#000100" transform="translate(0,0)"/>
<path d="" fill="#000000" transform="translate(0,0)"/>
<path d="" fill="#000100" transform="translate(0,0)"/>
<path d="" fill="#050505" transform="translate(0,0)"/>
<path d="" fill="#040407" transform="translate(0,0)"/>
<path d="" fill="#616161" transform="translate(0,0)"/>
<path d="" fill="#616161" transform="translate(0,0)"/>
<path d="" fill="#616161" transform="translate(0,0)"/>
<path d="" fill="#000100" transform="translate(0,0)"/>
<path d="" fill="#000100" transform="translate(0,0)"/>
<path d="" fill="#616161" transform="translate(0,0)"/>
<path d="" fill="#616161" transform="translate(0,0)"/>
<path d="" fill="#000100" transform="translate(0,0)"/>
<path d="" fill="#040405" transform="translate(0,0)"/>
<path d="" fill="#000100" transform="translate(0,0)"/>
<path d="" fill="#000100" transform="translate(0,0)"/>
<path d="" fill="#040405" transform="translate(0,0)"/>
<path d="" fill="#040404" transform="translate(0,0)"/>
<path d="" fill="#616161" transform="translate(0,0)"/>
<path d="" fill="#040407" transform="translate(0,0)"/>
<path d="" fill="#616161" transform="translate(0,0)"/>
<path d="" fill="#616161" transform="translate(0,0)"/>
<path d="" fill="#616161" transform="translate(0,0)"/>
<path d="" fill="#616161" transform="translate(0,0)"/>
<path d="" fill="#616161" transform="translate(0,0)"/>
<path d="" fill="#000100" transform="translate(0,0)"/>
<path d="" fill="#616161" transform="translate(0,0)"/>
<path d="" fill="#616161" transform="translate(0,0)"/>
<path d="" fill="#616161" transform="translate(0,0)"/>
<path d="" fill="#616161" transform="translate(0,0)"/>
<path d="" fill="#050505" transform="translate(0,0)"/>
<path d="" fill="#050506" transform="translate(0,0)"/>
<path d="" fill="#000100" transform="translate(0,0)"/>
<path d="" fill="#616161" transform="translate(0,0)"/>
<path d="" fill="#616161" transform="translate(0,0)"/>
<path d="" fill="#000000" transform="translate(0,0)"/>
<path d="" fill="#040405" transform="translate(0,0)"/>
<path d="" fill="#040407" transform="translate(0,0)"/>
<path d="" fill="#616161" transform="translate(0,0)"/>
<path d="" fill="#616161" transform="translate(0,0)"/>
<path d="" fill="#616161" transform="translate(0,0)"/>
<path d="" fill="#616161" transform="translate(0,0)"/>
<path d="" fill="#616161" transform="translate(0,0)"/>
<path d="" fill="#000100" transform="translate(0,0)"/>
<path d="" fill="#050506" transform="translate(0,0)"/>
<path d="" fill="#020103" transform="translate(0,0)"/>
<path d="" fill="#000000" transform="translate(0,0)"/>
<path d="" fill="#000100" transform="translate(0,0)"/>
<path d="" fill="#000000" transform="translate(0,0)"/>
<path d="" fill="#040407" transform="translate(0,0)"/>
<path d="" fill="#000100" transform="translate(0,0)"/>
<path d="" fill="#050505" transform="translate(0,0)"/>
<path d="" fill="#000100" transform="translate(0,0)"/>
<path d="" fill="#616161" transform="translate(0,0)"/>
<path d="" fill="#000000" transform="translate(0,0)"/>
<path d="" fill="#000100" transform="translate(0,0)"/>
<path d="" fill="#050405" transform="translate(0,0)"/>
<path d="" fill="#000100" transform="translate(0,0)"/>
<path d="" fill="#000100" transform="translate(0,0)"/>
<path d="" fill="#000100" transform="translate(0,0)"/>
<path d="" fill="#050505" transform="translate(0,0)"/>
<path d="" fill="#000100" transform="translate(0,0)"/>
<path d="" fill="#000000" transform="translate(0,0)"/>
<path d="" fill="#616161" transform="translate(0,0)"/>
<path d="" fill="#000100" transform="translate(0,0)"/>
<path d="" fill="#000000" transform="translate(0,0)"/>
<path d="" fill="#050405" transform="translate(0,0)"/>
<path d="" fill="#616161" transform="translate(0,0)"/>
<path d="" fill="#000000" transform="translate(0,0)"/>
<path d="" fill="#616161" transform="translate(0,0)"/>
<path d="" fill="#000000" transform="translate(0,0)"/>
<path d="" fill="#616161" transform="translate(0,0)"/>
<path d="" fill="#616161" transform="translate(0,0)"/>
<path d="" fill="#020103" transform="translate(0,0)"/>
<path d="" fill="#000100" transform="translate(0,0)"/>
<path d="" fill="#050405" transform="translate(0,0)"/>
<path d="" fill="#616161" transform="translate(0,0)"/>
<path d="" fill="#000000" transform="translate(0,0)"/>
<path d="" fill="#000100" transform="translate(0,0)"/>
<path d="" fill="#000000" transform="translate(0,0)"/>
<path d="" fill="#050506" transform="translate(0,0)"/>
<path d="" fill="#000100" transform="translate(0,0)"/>
<path d="" fill="#000100" transform="translate(0,0)"/>
<path d="" fill="#000100" transform="translate(0,0)"/>
<path d="" fill="#616161" transform="translate(0,0)"/>
<path d="" fill="#000000" transform="translate(0,0)"/>
<path d="" fill="#000100" transform="translate(0,0)"/>
<path d="" fill="#616161" transform="translate(0,0)"/>
<path d="" fill="#000100" transform="translate(0,0)"/>
<path d="" fill="#000100" transform="translate(0,0)"/>
<path d="" fill="#616161" transform="translate(0,0)"/>
<path d="" fill="#616161" transform="translate(0,0)"/>
<path d="" fill="#020103" transform="translate(0,0)"/>
<path d="" fill="#616161" transform="translate(0,0)"/>
<path d="" fill="#040407" transform="translate(0,0)"/>
<path d="" fill="#616161" transform="translate(0,0)"/>
<path d="" fill="#000000" transform="translate(0,0)"/>
<path d="" fill="#616161" transform="translate(0,0)"/>
<path d="" fill="#030304" transform="translate(0,0)"/>
<path d="" fill="#000100" transform="translate(0,0)"/>
<path d="" fill="#000000" transform="translate(0,0)"/>
<path d="" fill="#616161" transform="translate(0,0)"/>
<path d="" fill="#616161" transform="translate(0,0)"/>
<path d="" fill="#616161" transform="translate(0,0)"/>
<path d="" fill="#050405" transform="translate(0,0)"/>
<path d="" fill="#040404" transform="translate(0,0)"/>
<path d="" fill="#030304" transform="translate(0,0)"/>
<path d="" fill="#000100" transform="translate(0,0)"/>
<path d="" fill="#000100" transform="translate(0,0)"/>
<path d="" fill="#040405" transform="translate(0,0)"/>
<path d="" fill="#000000" transform="translate(0,0)"/>
<path d="" fill="#616161" transform="translate(0,0)"/>
<path d="" fill="#616161" transform="translate(0,0)"/>
<path d="" fill="#616161" transform="translate(0,0)"/>
<path d="" fill="#616161" transform="translate(0,0)"/>
<path d="" fill="#616161" transform="translate(0,0)"/>
<path d="" fill="#616161" transform="translate(0,0)"/>
<path d="" fill="#616161" transform="translate(0,0)"/>
<path d="" fill="#616161" transform="translate(0,0)"/>
<path d="" fill="#616161" transform="translate(0,0)"/>
<path d="" fill="#616161" transform="translate(0,0)"/>
<path d="" fill="#616161" transform="translate(0,0)"/>
<path d="" fill="#616161" transform="translate(0,0)"/>
<path d="" fill="#616161" transform="translate(0,0)"/>
</svg>
